%TF.GenerationSoftware,KiCad,Pcbnew,8.0.6*%
%TF.CreationDate,2024-12-25T17:09:27-08:00*%
%TF.ProjectId,USB_LED_Controller,5553425f-4c45-4445-9f43-6f6e74726f6c,rev?*%
%TF.SameCoordinates,Original*%
%TF.FileFunction,Legend,Top*%
%TF.FilePolarity,Positive*%
%FSLAX46Y46*%
G04 Gerber Fmt 4.6, Leading zero omitted, Abs format (unit mm)*
G04 Created by KiCad (PCBNEW 8.0.6) date 2024-12-25 17:09:27*
%MOMM*%
%LPD*%
G01*
G04 APERTURE LIST*
%ADD10C,0.150000*%
%ADD11C,0.120000*%
G04 APERTURE END LIST*
D10*
X96008866Y-70681620D02*
X96008866Y-69919716D01*
X95637579Y-72132866D02*
X96399484Y-72132866D01*
X96018531Y-72513819D02*
X96018531Y-71751914D01*
X95958066Y-66465220D02*
X95958066Y-65703316D01*
X95586779Y-68068866D02*
X96348684Y-68068866D01*
X95967731Y-68449819D02*
X95967731Y-67687914D01*
D11*
%TO.C,R4*%
X86079000Y-75568436D02*
X86079000Y-76022564D01*
X84609000Y-75568436D02*
X84609000Y-76022564D01*
%TO.C,R2*%
X93626000Y-67410064D02*
X93626000Y-66955936D01*
X95096000Y-67410064D02*
X95096000Y-66955936D01*
%TO.C,U2*%
X77550000Y-69742000D02*
X81310000Y-69742000D01*
X77550000Y-76562000D02*
X81310000Y-76562000D01*
X81310000Y-69742000D02*
X81310000Y-71002000D01*
X81310000Y-76562000D02*
X81310000Y-75302000D01*
X76270000Y-69842000D02*
X76030000Y-69512000D01*
X76510000Y-69512000D01*
X76270000Y-69842000D01*
G36*
X76270000Y-69842000D02*
G01*
X76030000Y-69512000D01*
X76510000Y-69512000D01*
X76270000Y-69842000D01*
G37*
%TO.C,U1*%
X86290000Y-69850000D02*
X86290000Y-72050000D01*
X86290000Y-69850000D02*
X86290000Y-67650000D01*
X91510000Y-69850000D02*
X91510000Y-72050000D01*
X91510000Y-69850000D02*
X91510000Y-67650000D01*
X86490000Y-72750000D02*
X86160000Y-72990000D01*
X86160000Y-72510000D01*
X86490000Y-72750000D01*
G36*
X86490000Y-72750000D02*
G01*
X86160000Y-72990000D01*
X86160000Y-72510000D01*
X86490000Y-72750000D01*
G37*
%TO.C,R3*%
X88488436Y-74782000D02*
X89942564Y-74782000D01*
X88488436Y-76602000D02*
X89942564Y-76602000D01*
%TO.C,R1*%
X93602500Y-71347064D02*
X93602500Y-70892936D01*
X95072500Y-71347064D02*
X95072500Y-70892936D01*
%TO.C,Q1*%
X93901500Y-76490000D02*
X94551500Y-76490000D01*
X93901500Y-76490000D02*
X93251500Y-76490000D01*
X93901500Y-73370000D02*
X94551500Y-73370000D01*
X93901500Y-73370000D02*
X93251500Y-73370000D01*
X95304000Y-76770000D02*
X94824000Y-76770000D01*
X95064000Y-76440000D01*
X95304000Y-76770000D01*
G36*
X95304000Y-76770000D02*
G01*
X94824000Y-76770000D01*
X95064000Y-76440000D01*
X95304000Y-76770000D01*
G37*
%TO.C,J2*%
X72852000Y-67110000D02*
X72852000Y-67490000D01*
X71082000Y-67110000D02*
X72852000Y-67110000D01*
X68542000Y-67110000D02*
X68802000Y-67110000D01*
X72852000Y-74730000D02*
X72852000Y-74350000D01*
X72852000Y-74730000D02*
X71082000Y-74730000D01*
X68802000Y-74730000D02*
X68542000Y-74730000D01*
%TO.C,FB1*%
X77061122Y-68759000D02*
X76261878Y-68759000D01*
X77061122Y-67639000D02*
X76261878Y-67639000D01*
%TO.C,C5*%
X81915580Y-66800000D02*
X81634420Y-66800000D01*
X81915580Y-67820000D02*
X81634420Y-67820000D01*
%TO.C,C4*%
X77089580Y-66804000D02*
X76808420Y-66804000D01*
X77089580Y-65784000D02*
X76808420Y-65784000D01*
%TO.C,C3*%
X88527836Y-65765000D02*
X88312164Y-65765000D01*
X88527836Y-65045000D02*
X88312164Y-65045000D01*
%TO.C,C2*%
X87101000Y-64888164D02*
X87101000Y-65103836D01*
X86381000Y-64888164D02*
X86381000Y-65103836D01*
%TO.C,C1*%
X90471164Y-65045000D02*
X90686836Y-65045000D01*
X90471164Y-65765000D02*
X90686836Y-65765000D01*
%TD*%
M02*
