%TF.GenerationSoftware,KiCad,Pcbnew,8.0.6*%
%TF.CreationDate,2024-12-25T17:09:28-08:00*%
%TF.ProjectId,USB_LED_Controller,5553425f-4c45-4445-9f43-6f6e74726f6c,rev?*%
%TF.SameCoordinates,Original*%
%TF.FileFunction,Legend,Bot*%
%TF.FilePolarity,Positive*%
%FSLAX46Y46*%
G04 Gerber Fmt 4.6, Leading zero omitted, Abs format (unit mm)*
G04 Created by KiCad (PCBNEW 8.0.6) date 2024-12-25 17:09:28*
%MOMM*%
%LPD*%
G01*
G04 APERTURE LIST*
%ADD10C,0.150000*%
%ADD11C,0.120000*%
G04 APERTURE END LIST*
D10*
X90357438Y-71726588D02*
X90309819Y-71631350D01*
X90309819Y-71631350D02*
X90309819Y-71488493D01*
X90309819Y-71488493D02*
X90357438Y-71345636D01*
X90357438Y-71345636D02*
X90452676Y-71250398D01*
X90452676Y-71250398D02*
X90547914Y-71202779D01*
X90547914Y-71202779D02*
X90738390Y-71155160D01*
X90738390Y-71155160D02*
X90881247Y-71155160D01*
X90881247Y-71155160D02*
X91071723Y-71202779D01*
X91071723Y-71202779D02*
X91166961Y-71250398D01*
X91166961Y-71250398D02*
X91262200Y-71345636D01*
X91262200Y-71345636D02*
X91309819Y-71488493D01*
X91309819Y-71488493D02*
X91309819Y-71583731D01*
X91309819Y-71583731D02*
X91262200Y-71726588D01*
X91262200Y-71726588D02*
X91214580Y-71774207D01*
X91214580Y-71774207D02*
X90881247Y-71774207D01*
X90881247Y-71774207D02*
X90881247Y-71583731D01*
X91309819Y-72202779D02*
X90309819Y-72202779D01*
X90309819Y-72202779D02*
X91309819Y-72774207D01*
X91309819Y-72774207D02*
X90309819Y-72774207D01*
X91309819Y-73250398D02*
X90309819Y-73250398D01*
X90309819Y-73250398D02*
X90309819Y-73488493D01*
X90309819Y-73488493D02*
X90357438Y-73631350D01*
X90357438Y-73631350D02*
X90452676Y-73726588D01*
X90452676Y-73726588D02*
X90547914Y-73774207D01*
X90547914Y-73774207D02*
X90738390Y-73821826D01*
X90738390Y-73821826D02*
X90881247Y-73821826D01*
X90881247Y-73821826D02*
X91071723Y-73774207D01*
X91071723Y-73774207D02*
X91166961Y-73726588D01*
X91166961Y-73726588D02*
X91262200Y-73631350D01*
X91262200Y-73631350D02*
X91309819Y-73488493D01*
X91309819Y-73488493D02*
X91309819Y-73250398D01*
X89039819Y-71107541D02*
X89039819Y-71726588D01*
X89039819Y-71726588D02*
X89420771Y-71393255D01*
X89420771Y-71393255D02*
X89420771Y-71536112D01*
X89420771Y-71536112D02*
X89468390Y-71631350D01*
X89468390Y-71631350D02*
X89516009Y-71678969D01*
X89516009Y-71678969D02*
X89611247Y-71726588D01*
X89611247Y-71726588D02*
X89849342Y-71726588D01*
X89849342Y-71726588D02*
X89944580Y-71678969D01*
X89944580Y-71678969D02*
X89992200Y-71631350D01*
X89992200Y-71631350D02*
X90039819Y-71536112D01*
X90039819Y-71536112D02*
X90039819Y-71250398D01*
X90039819Y-71250398D02*
X89992200Y-71155160D01*
X89992200Y-71155160D02*
X89944580Y-71107541D01*
X89944580Y-72155160D02*
X89992200Y-72202779D01*
X89992200Y-72202779D02*
X90039819Y-72155160D01*
X90039819Y-72155160D02*
X89992200Y-72107541D01*
X89992200Y-72107541D02*
X89944580Y-72155160D01*
X89944580Y-72155160D02*
X90039819Y-72155160D01*
X89039819Y-72536112D02*
X89039819Y-73155159D01*
X89039819Y-73155159D02*
X89420771Y-72821826D01*
X89420771Y-72821826D02*
X89420771Y-72964683D01*
X89420771Y-72964683D02*
X89468390Y-73059921D01*
X89468390Y-73059921D02*
X89516009Y-73107540D01*
X89516009Y-73107540D02*
X89611247Y-73155159D01*
X89611247Y-73155159D02*
X89849342Y-73155159D01*
X89849342Y-73155159D02*
X89944580Y-73107540D01*
X89944580Y-73107540D02*
X89992200Y-73059921D01*
X89992200Y-73059921D02*
X90039819Y-72964683D01*
X90039819Y-72964683D02*
X90039819Y-72678969D01*
X90039819Y-72678969D02*
X89992200Y-72583731D01*
X89992200Y-72583731D02*
X89944580Y-72536112D01*
X89039819Y-73440874D02*
X90039819Y-73774207D01*
X90039819Y-73774207D02*
X89039819Y-74107540D01*
X88773000Y-71155160D02*
X88820619Y-71298017D01*
X88820619Y-71298017D02*
X88820619Y-71536112D01*
X88820619Y-71536112D02*
X88773000Y-71631350D01*
X88773000Y-71631350D02*
X88725380Y-71678969D01*
X88725380Y-71678969D02*
X88630142Y-71726588D01*
X88630142Y-71726588D02*
X88534904Y-71726588D01*
X88534904Y-71726588D02*
X88439666Y-71678969D01*
X88439666Y-71678969D02*
X88392047Y-71631350D01*
X88392047Y-71631350D02*
X88344428Y-71536112D01*
X88344428Y-71536112D02*
X88296809Y-71345636D01*
X88296809Y-71345636D02*
X88249190Y-71250398D01*
X88249190Y-71250398D02*
X88201571Y-71202779D01*
X88201571Y-71202779D02*
X88106333Y-71155160D01*
X88106333Y-71155160D02*
X88011095Y-71155160D01*
X88011095Y-71155160D02*
X87915857Y-71202779D01*
X87915857Y-71202779D02*
X87868238Y-71250398D01*
X87868238Y-71250398D02*
X87820619Y-71345636D01*
X87820619Y-71345636D02*
X87820619Y-71583731D01*
X87820619Y-71583731D02*
X87868238Y-71726588D01*
X87820619Y-72059922D02*
X88820619Y-72298017D01*
X88820619Y-72298017D02*
X88106333Y-72488493D01*
X88106333Y-72488493D02*
X88820619Y-72678969D01*
X88820619Y-72678969D02*
X87820619Y-72917065D01*
X88820619Y-73298017D02*
X87820619Y-73298017D01*
X87820619Y-73298017D02*
X87820619Y-73536112D01*
X87820619Y-73536112D02*
X87868238Y-73678969D01*
X87868238Y-73678969D02*
X87963476Y-73774207D01*
X87963476Y-73774207D02*
X88058714Y-73821826D01*
X88058714Y-73821826D02*
X88249190Y-73869445D01*
X88249190Y-73869445D02*
X88392047Y-73869445D01*
X88392047Y-73869445D02*
X88582523Y-73821826D01*
X88582523Y-73821826D02*
X88677761Y-73774207D01*
X88677761Y-73774207D02*
X88773000Y-73678969D01*
X88773000Y-73678969D02*
X88820619Y-73536112D01*
X88820619Y-73536112D02*
X88820619Y-73298017D01*
X88820619Y-74298017D02*
X87820619Y-74298017D01*
X87820619Y-74964683D02*
X87820619Y-75155159D01*
X87820619Y-75155159D02*
X87868238Y-75250397D01*
X87868238Y-75250397D02*
X87963476Y-75345635D01*
X87963476Y-75345635D02*
X88153952Y-75393254D01*
X88153952Y-75393254D02*
X88487285Y-75393254D01*
X88487285Y-75393254D02*
X88677761Y-75345635D01*
X88677761Y-75345635D02*
X88773000Y-75250397D01*
X88773000Y-75250397D02*
X88820619Y-75155159D01*
X88820619Y-75155159D02*
X88820619Y-74964683D01*
X88820619Y-74964683D02*
X88773000Y-74869445D01*
X88773000Y-74869445D02*
X88677761Y-74774207D01*
X88677761Y-74774207D02*
X88487285Y-74726588D01*
X88487285Y-74726588D02*
X88153952Y-74726588D01*
X88153952Y-74726588D02*
X87963476Y-74774207D01*
X87963476Y-74774207D02*
X87868238Y-74869445D01*
X87868238Y-74869445D02*
X87820619Y-74964683D01*
X87452200Y-71155160D02*
X87499819Y-71298017D01*
X87499819Y-71298017D02*
X87499819Y-71536112D01*
X87499819Y-71536112D02*
X87452200Y-71631350D01*
X87452200Y-71631350D02*
X87404580Y-71678969D01*
X87404580Y-71678969D02*
X87309342Y-71726588D01*
X87309342Y-71726588D02*
X87214104Y-71726588D01*
X87214104Y-71726588D02*
X87118866Y-71678969D01*
X87118866Y-71678969D02*
X87071247Y-71631350D01*
X87071247Y-71631350D02*
X87023628Y-71536112D01*
X87023628Y-71536112D02*
X86976009Y-71345636D01*
X86976009Y-71345636D02*
X86928390Y-71250398D01*
X86928390Y-71250398D02*
X86880771Y-71202779D01*
X86880771Y-71202779D02*
X86785533Y-71155160D01*
X86785533Y-71155160D02*
X86690295Y-71155160D01*
X86690295Y-71155160D02*
X86595057Y-71202779D01*
X86595057Y-71202779D02*
X86547438Y-71250398D01*
X86547438Y-71250398D02*
X86499819Y-71345636D01*
X86499819Y-71345636D02*
X86499819Y-71583731D01*
X86499819Y-71583731D02*
X86547438Y-71726588D01*
X86499819Y-72059922D02*
X87499819Y-72298017D01*
X87499819Y-72298017D02*
X86785533Y-72488493D01*
X86785533Y-72488493D02*
X87499819Y-72678969D01*
X87499819Y-72678969D02*
X86499819Y-72917065D01*
X87404580Y-73869445D02*
X87452200Y-73821826D01*
X87452200Y-73821826D02*
X87499819Y-73678969D01*
X87499819Y-73678969D02*
X87499819Y-73583731D01*
X87499819Y-73583731D02*
X87452200Y-73440874D01*
X87452200Y-73440874D02*
X87356961Y-73345636D01*
X87356961Y-73345636D02*
X87261723Y-73298017D01*
X87261723Y-73298017D02*
X87071247Y-73250398D01*
X87071247Y-73250398D02*
X86928390Y-73250398D01*
X86928390Y-73250398D02*
X86737914Y-73298017D01*
X86737914Y-73298017D02*
X86642676Y-73345636D01*
X86642676Y-73345636D02*
X86547438Y-73440874D01*
X86547438Y-73440874D02*
X86499819Y-73583731D01*
X86499819Y-73583731D02*
X86499819Y-73678969D01*
X86499819Y-73678969D02*
X86547438Y-73821826D01*
X86547438Y-73821826D02*
X86595057Y-73869445D01*
X87499819Y-74774207D02*
X87499819Y-74298017D01*
X87499819Y-74298017D02*
X86499819Y-74298017D01*
X87499819Y-75107541D02*
X86499819Y-75107541D01*
X87499819Y-75678969D02*
X86928390Y-75250398D01*
X86499819Y-75678969D02*
X87071247Y-75107541D01*
D11*
%TO.C,J1*%
X86235000Y-69850000D02*
X86235000Y-68740000D01*
X86235000Y-68740000D02*
X86995000Y-68740000D01*
X91500000Y-68740000D02*
X87755000Y-68740000D01*
X87755000Y-69286529D02*
X87755000Y-68740000D01*
X91500000Y-69542470D02*
X91500000Y-68740000D01*
X91500000Y-70960000D02*
X91500000Y-70157530D01*
X87755000Y-70960000D02*
X87755000Y-70413471D01*
X91500000Y-70960000D02*
X87755000Y-70960000D01*
%TD*%
M02*
