%TF.GenerationSoftware,KiCad,Pcbnew,8.0.6*%
%TF.CreationDate,2024-12-25T17:09:27-08:00*%
%TF.ProjectId,USB_LED_Controller,5553425f-4c45-4445-9f43-6f6e74726f6c,rev?*%
%TF.SameCoordinates,Original*%
%TF.FileFunction,Paste,Top*%
%TF.FilePolarity,Positive*%
%FSLAX46Y46*%
G04 Gerber Fmt 4.6, Leading zero omitted, Abs format (unit mm)*
G04 Created by KiCad (PCBNEW 8.0.6) date 2024-12-25 17:09:27*
%MOMM*%
%LPD*%
G01*
G04 APERTURE LIST*
G04 Aperture macros list*
%AMRoundRect*
0 Rectangle with rounded corners*
0 $1 Rounding radius*
0 $2 $3 $4 $5 $6 $7 $8 $9 X,Y pos of 4 corners*
0 Add a 4 corners polygon primitive as box body*
4,1,4,$2,$3,$4,$5,$6,$7,$8,$9,$2,$3,0*
0 Add four circle primitives for the rounded corners*
1,1,$1+$1,$2,$3*
1,1,$1+$1,$4,$5*
1,1,$1+$1,$6,$7*
1,1,$1+$1,$8,$9*
0 Add four rect primitives between the rounded corners*
20,1,$1+$1,$2,$3,$4,$5,0*
20,1,$1+$1,$4,$5,$6,$7,0*
20,1,$1+$1,$6,$7,$8,$9,0*
20,1,$1+$1,$8,$9,$2,$3,0*%
G04 Aperture macros list end*
%ADD10RoundRect,0.250000X-0.450000X0.262500X-0.450000X-0.262500X0.450000X-0.262500X0.450000X0.262500X0*%
%ADD11RoundRect,0.250000X0.450000X-0.262500X0.450000X0.262500X-0.450000X0.262500X-0.450000X-0.262500X0*%
%ADD12RoundRect,0.375000X-0.625000X-0.375000X0.625000X-0.375000X0.625000X0.375000X-0.625000X0.375000X0*%
%ADD13RoundRect,0.500000X-0.500000X-1.400000X0.500000X-1.400000X0.500000X1.400000X-0.500000X1.400000X0*%
%ADD14RoundRect,0.100000X0.100000X-0.637500X0.100000X0.637500X-0.100000X0.637500X-0.100000X-0.637500X0*%
%ADD15RoundRect,0.250000X-0.312500X-0.625000X0.312500X-0.625000X0.312500X0.625000X-0.312500X0.625000X0*%
%ADD16RoundRect,0.150000X0.587500X0.150000X-0.587500X0.150000X-0.587500X-0.150000X0.587500X-0.150000X0*%
%ADD17R,1.380000X0.450000*%
%ADD18R,1.300000X1.650000*%
%ADD19R,1.550000X1.425000*%
%ADD20R,1.900000X1.800000*%
%ADD21R,1.900000X1.000000*%
%ADD22RoundRect,0.218750X0.218750X0.381250X-0.218750X0.381250X-0.218750X-0.381250X0.218750X-0.381250X0*%
%ADD23RoundRect,0.225000X0.225000X0.250000X-0.225000X0.250000X-0.225000X-0.250000X0.225000X-0.250000X0*%
%ADD24RoundRect,0.140000X0.140000X0.170000X-0.140000X0.170000X-0.140000X-0.170000X0.140000X-0.170000X0*%
%ADD25RoundRect,0.140000X-0.170000X0.140000X-0.170000X-0.140000X0.170000X-0.140000X0.170000X0.140000X0*%
%ADD26RoundRect,0.140000X-0.140000X-0.170000X0.140000X-0.170000X0.140000X0.170000X-0.140000X0.170000X0*%
G04 APERTURE END LIST*
D10*
%TO.C,R4*%
X85344000Y-74883000D03*
X85344000Y-76708000D03*
%TD*%
D11*
%TO.C,R2*%
X94361000Y-68095500D03*
X94361000Y-66270500D03*
%TD*%
D12*
%TO.C,U2*%
X76250000Y-70852000D03*
X76250000Y-73152000D03*
D13*
X82550000Y-73152000D03*
D12*
X76250000Y-75452000D03*
%TD*%
D14*
%TO.C,U1*%
X86950000Y-72712500D03*
X87600000Y-72712500D03*
X88250000Y-72712500D03*
X88900000Y-72712500D03*
X89550000Y-72712500D03*
X90200000Y-72712500D03*
X90850000Y-72712500D03*
X90850000Y-66987500D03*
X90200000Y-66987500D03*
X89550000Y-66987500D03*
X88900000Y-66987500D03*
X88250000Y-66987500D03*
X87600000Y-66987500D03*
X86950000Y-66987500D03*
%TD*%
D15*
%TO.C,R3*%
X87753000Y-75692000D03*
X90678000Y-75692000D03*
%TD*%
D11*
%TO.C,R1*%
X94337500Y-72032500D03*
X94337500Y-70207500D03*
%TD*%
D16*
%TO.C,Q1*%
X94839000Y-75880000D03*
X94839000Y-73980000D03*
X92964000Y-74930000D03*
%TD*%
D17*
%TO.C,J2*%
X72602000Y-69620000D03*
X72602000Y-70270000D03*
X72602000Y-70920000D03*
X72602000Y-71570000D03*
X72602000Y-72220000D03*
D18*
X69942000Y-67545000D03*
D19*
X72517000Y-68432500D03*
D20*
X69942000Y-69770000D03*
D21*
X69942000Y-72470000D03*
D19*
X72517000Y-73407500D03*
D18*
X69942000Y-74295000D03*
%TD*%
D22*
%TO.C,FB1*%
X77724000Y-68199000D03*
X75599000Y-68199000D03*
%TD*%
D23*
%TO.C,C5*%
X81000000Y-67310000D03*
X82550000Y-67310000D03*
%TD*%
%TO.C,C4*%
X77724000Y-66294000D03*
X76174000Y-66294000D03*
%TD*%
D24*
%TO.C,C3*%
X88900000Y-65405000D03*
X87940000Y-65405000D03*
%TD*%
D25*
%TO.C,C2*%
X86741000Y-64516000D03*
X86741000Y-65476000D03*
%TD*%
D26*
%TO.C,C1*%
X90099000Y-65405000D03*
X91059000Y-65405000D03*
%TD*%
M02*
