%TF.GenerationSoftware,KiCad,Pcbnew,8.0.6*%
%TF.CreationDate,2024-12-25T17:09:27-08:00*%
%TF.ProjectId,USB_LED_Controller,5553425f-4c45-4445-9f43-6f6e74726f6c,rev?*%
%TF.SameCoordinates,Original*%
%TF.FileFunction,Copper,L1,Top*%
%TF.FilePolarity,Positive*%
%FSLAX46Y46*%
G04 Gerber Fmt 4.6, Leading zero omitted, Abs format (unit mm)*
G04 Created by KiCad (PCBNEW 8.0.6) date 2024-12-25 17:09:27*
%MOMM*%
%LPD*%
G01*
G04 APERTURE LIST*
G04 Aperture macros list*
%AMRoundRect*
0 Rectangle with rounded corners*
0 $1 Rounding radius*
0 $2 $3 $4 $5 $6 $7 $8 $9 X,Y pos of 4 corners*
0 Add a 4 corners polygon primitive as box body*
4,1,4,$2,$3,$4,$5,$6,$7,$8,$9,$2,$3,0*
0 Add four circle primitives for the rounded corners*
1,1,$1+$1,$2,$3*
1,1,$1+$1,$4,$5*
1,1,$1+$1,$6,$7*
1,1,$1+$1,$8,$9*
0 Add four rect primitives between the rounded corners*
20,1,$1+$1,$2,$3,$4,$5,0*
20,1,$1+$1,$4,$5,$6,$7,0*
20,1,$1+$1,$6,$7,$8,$9,0*
20,1,$1+$1,$8,$9,$2,$3,0*%
G04 Aperture macros list end*
%TA.AperFunction,SMDPad,CuDef*%
%ADD10RoundRect,0.250000X-0.450000X0.262500X-0.450000X-0.262500X0.450000X-0.262500X0.450000X0.262500X0*%
%TD*%
%TA.AperFunction,SMDPad,CuDef*%
%ADD11RoundRect,0.250000X0.450000X-0.262500X0.450000X0.262500X-0.450000X0.262500X-0.450000X-0.262500X0*%
%TD*%
%TA.AperFunction,SMDPad,CuDef*%
%ADD12RoundRect,0.375000X-0.625000X-0.375000X0.625000X-0.375000X0.625000X0.375000X-0.625000X0.375000X0*%
%TD*%
%TA.AperFunction,SMDPad,CuDef*%
%ADD13RoundRect,0.500000X-0.500000X-1.400000X0.500000X-1.400000X0.500000X1.400000X-0.500000X1.400000X0*%
%TD*%
%TA.AperFunction,SMDPad,CuDef*%
%ADD14RoundRect,0.100000X0.100000X-0.637500X0.100000X0.637500X-0.100000X0.637500X-0.100000X-0.637500X0*%
%TD*%
%TA.AperFunction,SMDPad,CuDef*%
%ADD15RoundRect,0.250000X-0.312500X-0.625000X0.312500X-0.625000X0.312500X0.625000X-0.312500X0.625000X0*%
%TD*%
%TA.AperFunction,SMDPad,CuDef*%
%ADD16RoundRect,0.150000X0.587500X0.150000X-0.587500X0.150000X-0.587500X-0.150000X0.587500X-0.150000X0*%
%TD*%
%TA.AperFunction,SMDPad,CuDef*%
%ADD17R,1.380000X0.450000*%
%TD*%
%TA.AperFunction,SMDPad,CuDef*%
%ADD18R,1.300000X1.650000*%
%TD*%
%TA.AperFunction,SMDPad,CuDef*%
%ADD19R,1.550000X1.425000*%
%TD*%
%TA.AperFunction,SMDPad,CuDef*%
%ADD20R,1.900000X1.800000*%
%TD*%
%TA.AperFunction,SMDPad,CuDef*%
%ADD21R,1.900000X1.000000*%
%TD*%
%TA.AperFunction,ComponentPad*%
%ADD22R,1.000000X1.000000*%
%TD*%
%TA.AperFunction,ComponentPad*%
%ADD23O,1.000000X1.000000*%
%TD*%
%TA.AperFunction,SMDPad,CuDef*%
%ADD24RoundRect,0.218750X0.218750X0.381250X-0.218750X0.381250X-0.218750X-0.381250X0.218750X-0.381250X0*%
%TD*%
%TA.AperFunction,SMDPad,CuDef*%
%ADD25RoundRect,0.225000X0.225000X0.250000X-0.225000X0.250000X-0.225000X-0.250000X0.225000X-0.250000X0*%
%TD*%
%TA.AperFunction,SMDPad,CuDef*%
%ADD26RoundRect,0.140000X0.140000X0.170000X-0.140000X0.170000X-0.140000X-0.170000X0.140000X-0.170000X0*%
%TD*%
%TA.AperFunction,SMDPad,CuDef*%
%ADD27RoundRect,0.140000X-0.170000X0.140000X-0.170000X-0.140000X0.170000X-0.140000X0.170000X0.140000X0*%
%TD*%
%TA.AperFunction,SMDPad,CuDef*%
%ADD28RoundRect,0.140000X-0.140000X-0.170000X0.140000X-0.170000X0.140000X0.170000X-0.140000X0.170000X0*%
%TD*%
%TA.AperFunction,ViaPad*%
%ADD29C,0.600000*%
%TD*%
%TA.AperFunction,Conductor*%
%ADD30C,0.250000*%
%TD*%
%TA.AperFunction,Conductor*%
%ADD31C,0.400000*%
%TD*%
G04 APERTURE END LIST*
D10*
%TO.P,R4,1*%
%TO.N,Net-(U1-PB9)*%
X85344000Y-74883000D03*
%TO.P,R4,2*%
%TO.N,GND*%
X85344000Y-76708000D03*
%TD*%
D11*
%TO.P,R2,1*%
%TO.N,+5V*%
X94361000Y-68095500D03*
%TO.P,R2,2*%
%TO.N,Net-(Q1-D)*%
X94361000Y-66270500D03*
%TD*%
D12*
%TO.P,U2,1,GND*%
%TO.N,GND*%
X76250000Y-70852000D03*
%TO.P,U2,2,VO*%
%TO.N,+3.3V*%
X76250000Y-73152000D03*
D13*
X82550000Y-73152000D03*
D12*
%TO.P,U2,3,VI*%
%TO.N,+5V*%
X76250000Y-75452000D03*
%TD*%
D14*
%TO.P,U1,1,PB9*%
%TO.N,Net-(U1-PB9)*%
X86950000Y-72712500D03*
%TO.P,U1,2,PC14*%
%TO.N,unconnected-(U1-PC14-Pad2)*%
X87600000Y-72712500D03*
%TO.P,U1,3,PC15*%
%TO.N,unconnected-(U1-PC15-Pad3)*%
X88250000Y-72712500D03*
%TO.P,U1,4,NRST*%
%TO.N,unconnected-(U1-NRST-Pad4)*%
X88900000Y-72712500D03*
%TO.P,U1,5,PA0*%
%TO.N,PWM*%
X89550000Y-72712500D03*
%TO.P,U1,6,PA1*%
%TO.N,unconnected-(U1-PA1-Pad6)*%
X90200000Y-72712500D03*
%TO.P,U1,7,PA4*%
%TO.N,unconnected-(U1-PA4-Pad7)*%
X90850000Y-72712500D03*
%TO.P,U1,8,PA7*%
%TO.N,unconnected-(U1-PA7-Pad8)*%
X90850000Y-66987500D03*
%TO.P,U1,9,VSS*%
%TO.N,GND*%
X90200000Y-66987500D03*
%TO.P,U1,10,VDD*%
%TO.N,+3.3V*%
X89550000Y-66987500D03*
%TO.P,U1,11,PA9*%
%TO.N,unconnected-(U1-PA9-Pad11)*%
X88900000Y-66987500D03*
%TO.P,U1,12,PA10*%
%TO.N,unconnected-(U1-PA10-Pad12)*%
X88250000Y-66987500D03*
%TO.P,U1,13,PA13*%
%TO.N,SWDIO*%
X87600000Y-66987500D03*
%TO.P,U1,14,PA14*%
%TO.N,SWCLK*%
X86950000Y-66987500D03*
%TD*%
D15*
%TO.P,R3,1*%
%TO.N,PWM*%
X87753000Y-75692000D03*
%TO.P,R3,2*%
%TO.N,Net-(Q1-G)*%
X90678000Y-75692000D03*
%TD*%
D11*
%TO.P,R1,1*%
%TO.N,+5V*%
X94337500Y-72032500D03*
%TO.P,R1,2*%
%TO.N,Net-(Q1-D)*%
X94337500Y-70207500D03*
%TD*%
D16*
%TO.P,Q1,1,G*%
%TO.N,Net-(Q1-G)*%
X94839000Y-75880000D03*
%TO.P,Q1,2,S*%
%TO.N,GND*%
X94839000Y-73980000D03*
%TO.P,Q1,3,D*%
%TO.N,Net-(Q1-D)*%
X92964000Y-74930000D03*
%TD*%
D17*
%TO.P,J2,1,VBUS*%
%TO.N,Net-(J2-VBUS)*%
X72602000Y-69620000D03*
%TO.P,J2,2,D-*%
%TO.N,unconnected-(J2-D--Pad2)*%
X72602000Y-70270000D03*
%TO.P,J2,3,D+*%
%TO.N,unconnected-(J2-D+-Pad3)*%
X72602000Y-70920000D03*
%TO.P,J2,4,ID*%
%TO.N,unconnected-(J2-ID-Pad4)*%
X72602000Y-71570000D03*
%TO.P,J2,5,GND*%
%TO.N,GND*%
X72602000Y-72220000D03*
D18*
%TO.P,J2,6,Shield*%
%TO.N,unconnected-(J2-Shield-Pad6)_2*%
X69942000Y-67545000D03*
D19*
%TO.N,unconnected-(J2-Shield-Pad6)_4*%
X72517000Y-68432500D03*
D20*
%TO.N,unconnected-(J2-Shield-Pad6)_1*%
X69942000Y-69770000D03*
D21*
%TO.N,unconnected-(J2-Shield-Pad6)*%
X69942000Y-72470000D03*
D19*
%TO.N,unconnected-(J2-Shield-Pad6)_3*%
X72517000Y-73407500D03*
D18*
%TO.N,unconnected-(J2-Shield-Pad6)_5*%
X69942000Y-74295000D03*
%TD*%
D22*
%TO.P,J1,1,Pin_1*%
%TO.N,SWCLK*%
X86995000Y-69850000D03*
D23*
%TO.P,J1,2,Pin_2*%
%TO.N,SWDIO*%
X88265000Y-69850000D03*
%TO.P,J1,3,Pin_3*%
%TO.N,+3.3V*%
X89535000Y-69850000D03*
%TO.P,J1,4,Pin_4*%
%TO.N,GND*%
X90805000Y-69850000D03*
%TD*%
D24*
%TO.P,FB1,1*%
%TO.N,+5V*%
X77724000Y-68199000D03*
%TO.P,FB1,2*%
%TO.N,Net-(J2-VBUS)*%
X75599000Y-68199000D03*
%TD*%
D25*
%TO.P,C5,2*%
%TO.N,GND*%
X81000000Y-67310000D03*
%TO.P,C5,1*%
%TO.N,+3.3V*%
X82550000Y-67310000D03*
%TD*%
%TO.P,C4,1*%
%TO.N,+5V*%
X77724000Y-66294000D03*
%TO.P,C4,2*%
%TO.N,GND*%
X76174000Y-66294000D03*
%TD*%
D26*
%TO.P,C3,1*%
%TO.N,+3.3V*%
X88900000Y-65405000D03*
%TO.P,C3,2*%
%TO.N,GND*%
X87940000Y-65405000D03*
%TD*%
D27*
%TO.P,C2,1*%
%TO.N,+3.3V*%
X86741000Y-64516000D03*
%TO.P,C2,2*%
%TO.N,GND*%
X86741000Y-65476000D03*
%TD*%
D28*
%TO.P,C1,1*%
%TO.N,+3.3V*%
X90099000Y-65405000D03*
%TO.P,C1,2*%
%TO.N,GND*%
X91059000Y-65405000D03*
%TD*%
D29*
%TO.N,GND*%
X80772000Y-75692000D03*
X93980000Y-73152000D03*
X84582000Y-67310000D03*
X81026000Y-65786000D03*
X92202000Y-66548000D03*
%TO.N,Net-(Q1-D)*%
X92964000Y-70358000D03*
X92964000Y-72898000D03*
%TO.N,+5V*%
X92456000Y-68072000D03*
X79502000Y-68326000D03*
X79502000Y-75438000D03*
%TD*%
D30*
%TO.N,Net-(Q1-G)*%
X90678000Y-75692000D02*
X94651000Y-75692000D01*
X94651000Y-75692000D02*
X94839000Y-75880000D01*
%TO.N,PWM*%
X89550000Y-75296000D02*
X89550000Y-72712500D01*
X89154000Y-75692000D02*
X89550000Y-75296000D01*
X87753000Y-75692000D02*
X89154000Y-75692000D01*
%TO.N,Net-(U1-PB9)*%
X86950000Y-73832000D02*
X86950000Y-72712500D01*
X85899000Y-74883000D02*
X86950000Y-73832000D01*
X85344000Y-74883000D02*
X85899000Y-74883000D01*
%TO.N,GND*%
X92202000Y-65532000D02*
X92202000Y-66548000D01*
X91059000Y-65405000D02*
X91186000Y-65532000D01*
X91186000Y-65532000D02*
X92202000Y-65532000D01*
%TO.N,Net-(J2-VBUS)*%
X74178000Y-69620000D02*
X75599000Y-68199000D01*
X72602000Y-69620000D02*
X74178000Y-69620000D01*
%TO.N,GND*%
X74882000Y-72220000D02*
X76250000Y-70852000D01*
X72602000Y-72220000D02*
X74882000Y-72220000D01*
D31*
X86812000Y-65405000D02*
X86741000Y-65476000D01*
X87940000Y-65405000D02*
X86812000Y-65405000D01*
%TO.N,Net-(Q1-D)*%
X92964000Y-70358000D02*
X94187000Y-70358000D01*
X92964000Y-74930000D02*
X92964000Y-72898000D01*
X94187000Y-70358000D02*
X94337500Y-70207500D01*
%TO.N,+5V*%
X92606500Y-72032500D02*
X94337500Y-72032500D01*
X92202000Y-71628000D02*
X92606500Y-72032500D01*
X92202000Y-68326000D02*
X92202000Y-71628000D01*
X92456000Y-68072000D02*
X92202000Y-68326000D01*
X94337500Y-68072000D02*
X94361000Y-68095500D01*
X92456000Y-68072000D02*
X94337500Y-68072000D01*
%TO.N,Net-(Q1-D)*%
X95226500Y-66270500D02*
X94361000Y-66270500D01*
X95250000Y-66294000D02*
X95226500Y-66270500D01*
X95820000Y-69534000D02*
X95820000Y-66294000D01*
X95146500Y-70207500D02*
X95820000Y-69534000D01*
X95820000Y-66294000D02*
X95250000Y-66294000D01*
X94337500Y-70207500D02*
X95146500Y-70207500D01*
%TO.N,+5V*%
X77851000Y-68326000D02*
X77724000Y-68199000D01*
X79502000Y-68326000D02*
X77851000Y-68326000D01*
X79488000Y-75452000D02*
X79502000Y-75438000D01*
X76250000Y-75452000D02*
X79488000Y-75452000D01*
X77724000Y-68199000D02*
X77724000Y-66294000D01*
%TO.N,GND*%
X90200000Y-67975000D02*
X90200000Y-66987500D01*
X90805000Y-68580000D02*
X90200000Y-67975000D01*
X90805000Y-69850000D02*
X90805000Y-68580000D01*
%TO.N,+3.3V*%
X89550000Y-69835000D02*
X89535000Y-69850000D01*
X89550000Y-66987500D02*
X89550000Y-69835000D01*
D30*
%TO.N,SWDIO*%
X87600000Y-67988812D02*
X87600000Y-66987500D01*
X88265000Y-68653812D02*
X87600000Y-67988812D01*
X88265000Y-69850000D02*
X88265000Y-68653812D01*
%TO.N,SWCLK*%
X86995000Y-69850000D02*
X86995000Y-67032500D01*
X86995000Y-67032500D02*
X86950000Y-66987500D01*
D31*
%TO.N,+3.3V*%
X89550000Y-65415400D02*
X89560400Y-65405000D01*
X89550000Y-66987500D02*
X89550000Y-65415400D01*
X89560400Y-65405000D02*
X88900000Y-65405000D01*
X90099000Y-65405000D02*
X89560400Y-65405000D01*
X88900000Y-65024000D02*
X88900000Y-65405000D01*
X88392000Y-64516000D02*
X88900000Y-65024000D01*
X86741000Y-64516000D02*
X88392000Y-64516000D01*
X83820000Y-64516000D02*
X86741000Y-64516000D01*
X82550000Y-65786000D02*
X83820000Y-64516000D01*
X82550000Y-67310000D02*
X82550000Y-65786000D01*
X82550000Y-73152000D02*
X82550000Y-67310000D01*
X76250000Y-73152000D02*
X82550000Y-73152000D01*
%TD*%
%TA.AperFunction,Conductor*%
%TO.N,GND*%
G36*
X83112520Y-64020185D02*
G01*
X83158275Y-64072989D01*
X83168219Y-64142147D01*
X83139194Y-64205703D01*
X83133162Y-64212181D01*
X82005888Y-65339453D01*
X82005887Y-65339454D01*
X81929222Y-65454192D01*
X81876421Y-65581667D01*
X81876418Y-65581679D01*
X81850436Y-65712301D01*
X81850433Y-65712317D01*
X81849500Y-65717001D01*
X81849500Y-66371199D01*
X81829815Y-66438238D01*
X81777011Y-66483993D01*
X81707853Y-66493937D01*
X81660403Y-66476738D01*
X81533486Y-66398454D01*
X81533481Y-66398452D01*
X81372606Y-66345144D01*
X81273322Y-66335000D01*
X81250000Y-66335000D01*
X81250000Y-68284999D01*
X81273308Y-68284999D01*
X81273322Y-68284998D01*
X81372607Y-68274855D01*
X81533481Y-68221547D01*
X81533492Y-68221542D01*
X81660403Y-68143262D01*
X81727795Y-68124821D01*
X81794458Y-68145743D01*
X81839228Y-68199385D01*
X81849500Y-68248800D01*
X81849500Y-70675222D01*
X81829815Y-70742261D01*
X81777011Y-70788016D01*
X81759613Y-70794437D01*
X81676956Y-70818088D01*
X81642620Y-70836024D01*
X81496593Y-70912302D01*
X81496591Y-70912303D01*
X81496590Y-70912304D01*
X81338890Y-71040890D01*
X81210304Y-71198590D01*
X81116089Y-71378954D01*
X81084328Y-71489957D01*
X81065186Y-71556858D01*
X81060114Y-71574583D01*
X81060113Y-71574586D01*
X81049500Y-71693966D01*
X81049500Y-72327500D01*
X81029815Y-72394539D01*
X80977011Y-72440294D01*
X80925500Y-72451500D01*
X77767740Y-72451500D01*
X77700701Y-72431815D01*
X77656652Y-72382594D01*
X77617032Y-72302707D01*
X77617030Y-72302704D01*
X77497724Y-72154280D01*
X77497722Y-72154278D01*
X77428112Y-72098324D01*
X77388196Y-72040985D01*
X77385616Y-71971163D01*
X77421194Y-71911030D01*
X77428115Y-71905033D01*
X77497366Y-71849367D01*
X77497367Y-71849366D01*
X77616607Y-71701025D01*
X77616609Y-71701022D01*
X77701168Y-71530523D01*
X77747102Y-71345824D01*
X77750000Y-71303096D01*
X77750000Y-71102000D01*
X74750000Y-71102000D01*
X74750000Y-71303096D01*
X74752897Y-71345824D01*
X74798831Y-71530523D01*
X74883390Y-71701022D01*
X74883392Y-71701025D01*
X75002630Y-71849364D01*
X75071884Y-71905031D01*
X75111803Y-71962375D01*
X75114383Y-72032197D01*
X75078805Y-72092329D01*
X75071885Y-72098326D01*
X75002968Y-72153724D01*
X75002276Y-72154280D01*
X74882969Y-72302704D01*
X74882967Y-72302707D01*
X74798360Y-72473302D01*
X74752400Y-72658107D01*
X74749500Y-72700879D01*
X74749500Y-73603122D01*
X74749501Y-73603125D01*
X74752399Y-73645886D01*
X74752399Y-73645887D01*
X74798360Y-73830696D01*
X74882967Y-74001292D01*
X74882969Y-74001295D01*
X75002277Y-74149721D01*
X75002278Y-74149722D01*
X75071486Y-74205353D01*
X75111405Y-74262696D01*
X75113985Y-74332518D01*
X75078406Y-74392651D01*
X75071486Y-74398647D01*
X75002278Y-74454277D01*
X75002277Y-74454278D01*
X74882969Y-74602704D01*
X74882967Y-74602707D01*
X74798360Y-74773302D01*
X74752400Y-74958107D01*
X74749500Y-75000879D01*
X74749500Y-75903122D01*
X74749501Y-75903125D01*
X74752399Y-75945886D01*
X74752399Y-75945887D01*
X74760175Y-75977154D01*
X74797286Y-76126380D01*
X74798360Y-76130696D01*
X74882967Y-76301292D01*
X74882969Y-76301295D01*
X75002277Y-76449721D01*
X75002278Y-76449722D01*
X75150704Y-76569030D01*
X75150707Y-76569032D01*
X75321302Y-76653639D01*
X75321303Y-76653639D01*
X75321307Y-76653641D01*
X75506111Y-76699600D01*
X75548877Y-76702500D01*
X76951122Y-76702499D01*
X76993889Y-76699600D01*
X77178693Y-76653641D01*
X77349296Y-76569030D01*
X77497722Y-76449722D01*
X77617030Y-76301296D01*
X77656652Y-76221406D01*
X77704073Y-76170093D01*
X77767740Y-76152500D01*
X79100735Y-76152500D01*
X79145476Y-76162713D01*
X79145905Y-76161489D01*
X79322737Y-76223366D01*
X79322743Y-76223367D01*
X79322745Y-76223368D01*
X79322746Y-76223368D01*
X79322750Y-76223369D01*
X79501996Y-76243565D01*
X79502000Y-76243565D01*
X79502004Y-76243565D01*
X79681249Y-76223369D01*
X79681252Y-76223368D01*
X79681255Y-76223368D01*
X79851522Y-76163789D01*
X80004262Y-76067816D01*
X80131816Y-75940262D01*
X80227789Y-75787522D01*
X80287368Y-75617255D01*
X80287718Y-75614153D01*
X80307565Y-75438003D01*
X80307565Y-75437996D01*
X80287369Y-75258750D01*
X80287368Y-75258745D01*
X80255574Y-75167883D01*
X80227789Y-75088478D01*
X80220650Y-75077117D01*
X80172747Y-75000879D01*
X80131816Y-74935738D01*
X80004262Y-74808184D01*
X79977242Y-74791206D01*
X79851523Y-74712211D01*
X79681254Y-74652631D01*
X79681249Y-74652630D01*
X79502004Y-74632435D01*
X79501996Y-74632435D01*
X79322750Y-74652630D01*
X79322745Y-74652631D01*
X79152475Y-74712211D01*
X79120199Y-74732493D01*
X79054226Y-74751500D01*
X77767740Y-74751500D01*
X77700701Y-74731815D01*
X77656652Y-74682594D01*
X77617032Y-74602707D01*
X77617030Y-74602704D01*
X77497722Y-74454278D01*
X77497721Y-74454277D01*
X77428514Y-74398647D01*
X77388595Y-74341304D01*
X77386015Y-74271482D01*
X77421594Y-74211349D01*
X77428514Y-74205353D01*
X77443273Y-74193489D01*
X77497722Y-74149722D01*
X77617030Y-74001296D01*
X77642184Y-73950578D01*
X77656652Y-73921406D01*
X77704073Y-73870093D01*
X77767740Y-73852500D01*
X80925501Y-73852500D01*
X80992540Y-73872185D01*
X81038295Y-73924989D01*
X81049501Y-73976500D01*
X81049501Y-74610036D01*
X81050012Y-74615786D01*
X81060113Y-74729415D01*
X81116089Y-74925045D01*
X81116090Y-74925048D01*
X81116091Y-74925049D01*
X81210302Y-75105407D01*
X81210304Y-75105409D01*
X81338890Y-75263109D01*
X81382048Y-75298299D01*
X81496593Y-75391698D01*
X81676951Y-75485909D01*
X81872582Y-75541886D01*
X81991963Y-75552500D01*
X83108036Y-75552499D01*
X83227418Y-75541886D01*
X83423049Y-75485909D01*
X83603407Y-75391698D01*
X83761109Y-75263109D01*
X83889698Y-75105407D01*
X83909593Y-75067319D01*
X83958076Y-75017014D01*
X84026063Y-75000906D01*
X84091967Y-75024111D01*
X84134863Y-75079263D01*
X84143500Y-75124730D01*
X84143500Y-75195500D01*
X84143501Y-75195519D01*
X84154000Y-75298296D01*
X84154001Y-75298299D01*
X84209185Y-75464831D01*
X84209187Y-75464836D01*
X84217027Y-75477546D01*
X84301286Y-75614153D01*
X84301289Y-75614157D01*
X84395304Y-75708172D01*
X84428789Y-75769495D01*
X84423805Y-75839187D01*
X84395305Y-75883534D01*
X84301682Y-75977157D01*
X84209643Y-76126375D01*
X84209641Y-76126380D01*
X84154494Y-76292802D01*
X84154493Y-76292809D01*
X84144000Y-76395513D01*
X84144000Y-76458000D01*
X86566888Y-76458000D01*
X86577776Y-76452054D01*
X86647468Y-76457035D01*
X86703404Y-76498903D01*
X86721847Y-76534215D01*
X86755685Y-76636331D01*
X86755687Y-76636336D01*
X86766360Y-76653639D01*
X86847788Y-76785656D01*
X86971844Y-76909712D01*
X87121166Y-77001814D01*
X87287703Y-77056999D01*
X87390491Y-77067500D01*
X88115508Y-77067499D01*
X88115516Y-77067498D01*
X88115519Y-77067498D01*
X88171802Y-77061748D01*
X88218297Y-77056999D01*
X88384834Y-77001814D01*
X88534156Y-76909712D01*
X88658212Y-76785656D01*
X88750314Y-76636334D01*
X88805499Y-76469797D01*
X88809677Y-76428896D01*
X88836073Y-76364207D01*
X88893253Y-76324055D01*
X88933035Y-76317500D01*
X89215607Y-76317500D01*
X89276029Y-76305481D01*
X89336452Y-76293463D01*
X89372013Y-76278733D01*
X89443550Y-76249101D01*
X89513018Y-76241633D01*
X89575497Y-76272909D01*
X89611149Y-76332998D01*
X89615000Y-76363644D01*
X89615000Y-76366991D01*
X89615001Y-76367019D01*
X89625500Y-76469796D01*
X89625501Y-76469799D01*
X89680685Y-76636331D01*
X89680687Y-76636336D01*
X89691360Y-76653639D01*
X89772788Y-76785656D01*
X89896844Y-76909712D01*
X90046166Y-77001814D01*
X90212703Y-77056999D01*
X90315491Y-77067500D01*
X91040508Y-77067499D01*
X91040516Y-77067498D01*
X91040519Y-77067498D01*
X91096802Y-77061748D01*
X91143297Y-77056999D01*
X91309834Y-77001814D01*
X91459156Y-76909712D01*
X91583212Y-76785656D01*
X91675314Y-76636334D01*
X91730499Y-76469797D01*
X91734677Y-76428896D01*
X91761073Y-76364207D01*
X91818253Y-76324055D01*
X91858035Y-76317500D01*
X93595055Y-76317500D01*
X93662094Y-76337185D01*
X93701787Y-76378379D01*
X93733416Y-76431861D01*
X93733423Y-76431870D01*
X93849629Y-76548076D01*
X93849633Y-76548079D01*
X93849635Y-76548081D01*
X93991102Y-76631744D01*
X94006901Y-76636334D01*
X94148926Y-76677597D01*
X94148929Y-76677597D01*
X94148931Y-76677598D01*
X94185806Y-76680500D01*
X94185814Y-76680500D01*
X95492186Y-76680500D01*
X95492194Y-76680500D01*
X95529069Y-76677598D01*
X95529071Y-76677597D01*
X95529073Y-76677597D01*
X95570691Y-76665505D01*
X95686898Y-76631744D01*
X95828365Y-76548081D01*
X95828365Y-76548080D01*
X95832379Y-76545707D01*
X95900103Y-76528524D01*
X95966366Y-76550684D01*
X96010129Y-76605150D01*
X96019500Y-76652439D01*
X96019500Y-76830124D01*
X96019118Y-76839853D01*
X96002973Y-77044984D01*
X95999929Y-77064202D01*
X95953037Y-77259524D01*
X95947024Y-77278030D01*
X95870152Y-77463615D01*
X95861318Y-77480952D01*
X95756363Y-77652221D01*
X95744926Y-77667962D01*
X95614468Y-77820709D01*
X95600709Y-77834468D01*
X95447962Y-77964926D01*
X95432221Y-77976363D01*
X95260952Y-78081318D01*
X95243615Y-78090152D01*
X95058030Y-78167024D01*
X95039524Y-78173037D01*
X94844202Y-78219929D01*
X94824984Y-78222973D01*
X94619854Y-78239118D01*
X94610125Y-78239500D01*
X69219875Y-78239500D01*
X69210146Y-78239118D01*
X69005015Y-78222973D01*
X68985797Y-78219929D01*
X68790475Y-78173037D01*
X68771969Y-78167024D01*
X68586384Y-78090152D01*
X68569047Y-78081318D01*
X68397778Y-77976363D01*
X68382037Y-77964926D01*
X68229290Y-77834468D01*
X68215531Y-77820709D01*
X68085073Y-77667962D01*
X68073636Y-77652221D01*
X67968681Y-77480952D01*
X67959847Y-77463615D01*
X67946298Y-77430906D01*
X67882973Y-77278024D01*
X67876964Y-77259531D01*
X67830069Y-77064197D01*
X67827026Y-77044984D01*
X67825098Y-77020486D01*
X84144001Y-77020486D01*
X84154494Y-77123197D01*
X84209641Y-77289619D01*
X84209643Y-77289624D01*
X84301684Y-77438845D01*
X84425654Y-77562815D01*
X84574875Y-77654856D01*
X84574880Y-77654858D01*
X84741302Y-77710005D01*
X84741309Y-77710006D01*
X84844019Y-77720499D01*
X85093999Y-77720499D01*
X85594000Y-77720499D01*
X85843972Y-77720499D01*
X85843986Y-77720498D01*
X85946697Y-77710005D01*
X86113119Y-77654858D01*
X86113124Y-77654856D01*
X86262345Y-77562815D01*
X86386315Y-77438845D01*
X86478356Y-77289624D01*
X86478358Y-77289619D01*
X86533505Y-77123197D01*
X86533506Y-77123190D01*
X86543999Y-77020486D01*
X86544000Y-77020473D01*
X86544000Y-76958000D01*
X85594000Y-76958000D01*
X85594000Y-77720499D01*
X85093999Y-77720499D01*
X85094000Y-77720498D01*
X85094000Y-76958000D01*
X84144001Y-76958000D01*
X84144001Y-77020486D01*
X67825098Y-77020486D01*
X67823628Y-77001814D01*
X67810882Y-76839853D01*
X67810500Y-76830124D01*
X67810500Y-68822135D01*
X68491500Y-68822135D01*
X68491500Y-70717870D01*
X68491501Y-70717876D01*
X68497908Y-70777483D01*
X68548202Y-70912328D01*
X68548206Y-70912335D01*
X68634452Y-71027544D01*
X68634455Y-71027547D01*
X68749664Y-71113793D01*
X68749671Y-71113797D01*
X68884517Y-71164091D01*
X68884516Y-71164091D01*
X68891444Y-71164835D01*
X68944127Y-71170500D01*
X70939872Y-71170499D01*
X70999483Y-71164091D01*
X71134331Y-71113796D01*
X71213192Y-71054760D01*
X71278652Y-71030344D01*
X71346925Y-71045195D01*
X71396331Y-71094599D01*
X71411500Y-71154025D01*
X71411500Y-71192867D01*
X71411501Y-71192878D01*
X71415679Y-71231745D01*
X71415679Y-71258250D01*
X71411500Y-71297122D01*
X71411500Y-71485970D01*
X71391815Y-71553009D01*
X71339011Y-71598764D01*
X71269853Y-71608708D01*
X71213189Y-71585237D01*
X71198956Y-71574582D01*
X71134331Y-71526204D01*
X71134329Y-71526203D01*
X71134328Y-71526202D01*
X70999482Y-71475908D01*
X70999483Y-71475908D01*
X70939883Y-71469501D01*
X70939881Y-71469500D01*
X70939873Y-71469500D01*
X70939864Y-71469500D01*
X68944129Y-71469500D01*
X68944123Y-71469501D01*
X68884516Y-71475908D01*
X68749671Y-71526202D01*
X68749664Y-71526206D01*
X68634455Y-71612452D01*
X68634452Y-71612455D01*
X68548206Y-71727664D01*
X68548202Y-71727671D01*
X68497908Y-71862517D01*
X68491501Y-71922116D01*
X68491500Y-71922135D01*
X68491500Y-73017870D01*
X68491501Y-73017876D01*
X68497908Y-73077483D01*
X68548202Y-73212328D01*
X68548206Y-73212335D01*
X68604677Y-73287769D01*
X68634454Y-73327546D01*
X68741811Y-73407914D01*
X68783682Y-73463847D01*
X68791500Y-73507180D01*
X68791500Y-75167870D01*
X68791501Y-75167876D01*
X68797908Y-75227483D01*
X68848202Y-75362328D01*
X68848206Y-75362335D01*
X68934452Y-75477544D01*
X68934455Y-75477547D01*
X69049664Y-75563793D01*
X69049671Y-75563797D01*
X69184517Y-75614091D01*
X69184516Y-75614091D01*
X69191444Y-75614835D01*
X69244127Y-75620500D01*
X70639872Y-75620499D01*
X70699483Y-75614091D01*
X70834331Y-75563796D01*
X70949546Y-75477546D01*
X71035796Y-75362331D01*
X71086091Y-75227483D01*
X71092500Y-75167873D01*
X71092499Y-74460099D01*
X71112183Y-74393063D01*
X71164987Y-74347308D01*
X71234146Y-74337364D01*
X71297702Y-74366389D01*
X71315765Y-74385790D01*
X71321210Y-74393063D01*
X71371395Y-74460102D01*
X71384455Y-74477547D01*
X71499664Y-74563793D01*
X71499671Y-74563797D01*
X71634517Y-74614091D01*
X71634516Y-74614091D01*
X71641444Y-74614835D01*
X71694127Y-74620500D01*
X73339872Y-74620499D01*
X73399483Y-74614091D01*
X73534331Y-74563796D01*
X73649546Y-74477546D01*
X73735796Y-74362331D01*
X73786091Y-74227483D01*
X73792500Y-74167873D01*
X73792499Y-72647128D01*
X73786091Y-72587517D01*
X73786090Y-72587516D01*
X73785380Y-72580904D01*
X73785381Y-72554393D01*
X73791999Y-72492842D01*
X73792000Y-72492827D01*
X73792000Y-72445000D01*
X73791948Y-72444948D01*
X73725085Y-72425315D01*
X73692859Y-72395313D01*
X73649546Y-72337454D01*
X73649544Y-72337452D01*
X73649543Y-72337451D01*
X73644773Y-72332681D01*
X73611288Y-72271358D01*
X73616272Y-72201666D01*
X73644773Y-72157319D01*
X73649542Y-72152548D01*
X73649546Y-72152546D01*
X73730289Y-72044688D01*
X73778105Y-72008894D01*
X73792000Y-71995000D01*
X73792000Y-71947182D01*
X73791999Y-71947164D01*
X73788068Y-71910602D01*
X73788068Y-71884094D01*
X73792500Y-71842873D01*
X73792499Y-71297128D01*
X73792499Y-71297127D01*
X73792498Y-71297111D01*
X73788320Y-71258253D01*
X73788320Y-71231745D01*
X73792500Y-71192873D01*
X73792499Y-70647128D01*
X73792499Y-70647127D01*
X73792498Y-70647111D01*
X73788320Y-70608253D01*
X73788320Y-70581747D01*
X73792500Y-70542873D01*
X73792499Y-70369499D01*
X73812183Y-70302461D01*
X73864987Y-70256706D01*
X73916499Y-70245500D01*
X74239607Y-70245500D01*
X74300029Y-70233481D01*
X74360452Y-70221463D01*
X74393968Y-70207580D01*
X74474286Y-70174312D01*
X74527872Y-70138506D01*
X74527873Y-70138506D01*
X74570438Y-70110064D01*
X74576733Y-70105858D01*
X74578922Y-70103669D01*
X74580353Y-70102887D01*
X74581443Y-70101993D01*
X74581612Y-70102199D01*
X74640243Y-70070179D01*
X74709935Y-70075158D01*
X74765871Y-70117025D01*
X74790293Y-70182487D01*
X74786945Y-70221269D01*
X74752897Y-70358173D01*
X74750000Y-70400903D01*
X74750000Y-70602000D01*
X76000000Y-70602000D01*
X76500000Y-70602000D01*
X77750000Y-70602000D01*
X77750000Y-70400903D01*
X77747102Y-70358175D01*
X77701168Y-70173476D01*
X77616609Y-70002977D01*
X77616607Y-70002974D01*
X77497367Y-69854633D01*
X77497366Y-69854632D01*
X77349025Y-69735392D01*
X77349022Y-69735390D01*
X77178523Y-69650831D01*
X76993824Y-69604897D01*
X76951097Y-69602000D01*
X76500000Y-69602000D01*
X76500000Y-70602000D01*
X76000000Y-70602000D01*
X76000000Y-69602000D01*
X75548903Y-69602000D01*
X75506173Y-69604897D01*
X75369267Y-69638945D01*
X75299458Y-69636021D01*
X75242312Y-69595820D01*
X75215972Y-69531106D01*
X75228801Y-69462424D01*
X75251656Y-69430933D01*
X75346773Y-69335818D01*
X75408096Y-69302334D01*
X75434453Y-69299500D01*
X75865669Y-69299500D01*
X75865674Y-69299500D01*
X75964185Y-69289436D01*
X76123787Y-69236549D01*
X76266891Y-69148281D01*
X76385781Y-69029391D01*
X76474049Y-68886287D01*
X76526936Y-68726685D01*
X76537000Y-68628174D01*
X76537000Y-67769826D01*
X76526936Y-67671315D01*
X76474049Y-67511713D01*
X76435470Y-67449168D01*
X76417031Y-67381776D01*
X76437954Y-67315113D01*
X76491595Y-67270343D01*
X76528413Y-67260713D01*
X76546610Y-67258854D01*
X76707481Y-67205547D01*
X76707488Y-67205544D01*
X76829615Y-67130214D01*
X76897007Y-67111773D01*
X76963671Y-67132695D01*
X77008441Y-67186336D01*
X77017103Y-67255667D01*
X76986907Y-67318675D01*
X76982395Y-67323432D01*
X76937219Y-67368608D01*
X76937216Y-67368612D01*
X76848955Y-67511704D01*
X76848950Y-67511715D01*
X76839369Y-67540630D01*
X76796064Y-67671315D01*
X76796064Y-67671316D01*
X76796063Y-67671316D01*
X76786000Y-67769818D01*
X76786000Y-68628181D01*
X76796063Y-68726683D01*
X76848950Y-68886284D01*
X76848955Y-68886295D01*
X76937216Y-69029387D01*
X76937219Y-69029391D01*
X77056108Y-69148280D01*
X77056112Y-69148283D01*
X77199204Y-69236544D01*
X77199207Y-69236545D01*
X77199213Y-69236549D01*
X77358815Y-69289436D01*
X77457326Y-69299500D01*
X77457331Y-69299500D01*
X77990669Y-69299500D01*
X77990674Y-69299500D01*
X78089185Y-69289436D01*
X78248787Y-69236549D01*
X78391891Y-69148281D01*
X78477353Y-69062819D01*
X78538676Y-69029334D01*
X78565034Y-69026500D01*
X79076506Y-69026500D01*
X79142477Y-69045506D01*
X79152474Y-69051787D01*
X79152475Y-69051787D01*
X79152478Y-69051789D01*
X79284539Y-69097999D01*
X79322745Y-69111368D01*
X79322750Y-69111369D01*
X79501996Y-69131565D01*
X79502000Y-69131565D01*
X79502004Y-69131565D01*
X79681249Y-69111369D01*
X79681252Y-69111368D01*
X79681255Y-69111368D01*
X79851522Y-69051789D01*
X80004262Y-68955816D01*
X80131816Y-68828262D01*
X80227789Y-68675522D01*
X80287368Y-68505255D01*
X80297214Y-68417873D01*
X80307516Y-68326437D01*
X80334582Y-68262023D01*
X80392177Y-68222468D01*
X80462014Y-68220330D01*
X80469741Y-68222614D01*
X80627394Y-68274856D01*
X80726683Y-68284999D01*
X80750000Y-68284998D01*
X80750000Y-67560000D01*
X80050001Y-67560000D01*
X80018641Y-67591360D01*
X79957317Y-67624844D01*
X79887626Y-67619859D01*
X79864988Y-67608672D01*
X79851523Y-67600211D01*
X79681254Y-67540631D01*
X79681249Y-67540630D01*
X79502004Y-67520435D01*
X79501996Y-67520435D01*
X79322750Y-67540630D01*
X79322745Y-67540631D01*
X79152474Y-67600212D01*
X79142477Y-67606494D01*
X79076506Y-67625500D01*
X78726295Y-67625500D01*
X78659256Y-67605815D01*
X78613501Y-67553011D01*
X78608589Y-67540504D01*
X78601939Y-67520435D01*
X78599049Y-67511713D01*
X78599045Y-67511707D01*
X78599044Y-67511704D01*
X78510783Y-67368612D01*
X78510780Y-67368608D01*
X78460819Y-67318647D01*
X78427334Y-67257324D01*
X78424500Y-67230966D01*
X78424500Y-67145874D01*
X78444185Y-67078835D01*
X78460819Y-67058193D01*
X78465081Y-67053931D01*
X78507335Y-67011677D01*
X80050000Y-67011677D01*
X80050000Y-67060000D01*
X80750000Y-67060000D01*
X80750000Y-66334999D01*
X80726693Y-66335000D01*
X80726674Y-66335001D01*
X80627392Y-66345144D01*
X80466518Y-66398452D01*
X80466507Y-66398457D01*
X80322271Y-66487424D01*
X80322267Y-66487427D01*
X80202427Y-66607267D01*
X80202424Y-66607271D01*
X80113457Y-66751507D01*
X80113452Y-66751518D01*
X80060144Y-66912393D01*
X80050000Y-67011677D01*
X78507335Y-67011677D01*
X78521968Y-66997044D01*
X78611003Y-66852697D01*
X78664349Y-66691708D01*
X78674500Y-66592345D01*
X78674499Y-65995656D01*
X78671917Y-65970383D01*
X78664349Y-65896292D01*
X78664348Y-65896289D01*
X78650734Y-65855204D01*
X78611003Y-65735303D01*
X78610999Y-65735297D01*
X78610998Y-65735294D01*
X78521970Y-65590959D01*
X78521967Y-65590955D01*
X78402044Y-65471032D01*
X78402040Y-65471029D01*
X78257705Y-65382001D01*
X78257699Y-65381998D01*
X78257697Y-65381997D01*
X78257694Y-65381996D01*
X78096709Y-65328651D01*
X77997346Y-65318500D01*
X77450662Y-65318500D01*
X77450644Y-65318501D01*
X77351292Y-65328650D01*
X77351289Y-65328651D01*
X77190305Y-65381996D01*
X77190294Y-65382001D01*
X77045959Y-65471029D01*
X77045953Y-65471033D01*
X77036324Y-65480663D01*
X76975000Y-65514146D01*
X76905308Y-65509159D01*
X76860965Y-65480660D01*
X76851732Y-65471427D01*
X76851728Y-65471424D01*
X76707492Y-65382457D01*
X76707481Y-65382452D01*
X76546606Y-65329144D01*
X76447322Y-65319000D01*
X76424000Y-65319000D01*
X76424000Y-66420000D01*
X76404315Y-66487039D01*
X76351511Y-66532794D01*
X76300000Y-66544000D01*
X75224001Y-66544000D01*
X75224001Y-66592322D01*
X75234144Y-66691607D01*
X75287452Y-66852481D01*
X75287455Y-66852488D01*
X75329021Y-66919875D01*
X75347462Y-66987268D01*
X75326540Y-67053931D01*
X75272898Y-67098701D01*
X75236099Y-67108329D01*
X75233829Y-67108561D01*
X75233816Y-67108563D01*
X75233815Y-67108564D01*
X75182066Y-67125712D01*
X75074215Y-67161450D01*
X75074204Y-67161455D01*
X74931112Y-67249716D01*
X74931108Y-67249719D01*
X74812219Y-67368608D01*
X74812216Y-67368612D01*
X74723955Y-67511704D01*
X74723950Y-67511715D01*
X74714369Y-67540630D01*
X74671064Y-67671315D01*
X74671064Y-67671316D01*
X74671063Y-67671316D01*
X74661000Y-67769818D01*
X74661000Y-68201047D01*
X74641315Y-68268086D01*
X74624681Y-68288728D01*
X74004180Y-68909229D01*
X73942857Y-68942714D01*
X73873165Y-68937730D01*
X73817232Y-68895858D01*
X73792815Y-68830394D01*
X73792499Y-68821572D01*
X73792499Y-67672128D01*
X73786091Y-67612517D01*
X73783591Y-67605815D01*
X73735797Y-67477671D01*
X73735793Y-67477664D01*
X73649547Y-67362455D01*
X73649544Y-67362452D01*
X73534335Y-67276206D01*
X73534328Y-67276202D01*
X73399482Y-67225908D01*
X73399483Y-67225908D01*
X73339883Y-67219501D01*
X73339881Y-67219500D01*
X73339873Y-67219500D01*
X73339864Y-67219500D01*
X71694129Y-67219500D01*
X71694123Y-67219501D01*
X71634516Y-67225908D01*
X71499671Y-67276202D01*
X71499664Y-67276206D01*
X71384455Y-67362452D01*
X71315765Y-67454210D01*
X71259831Y-67496080D01*
X71190139Y-67501064D01*
X71128817Y-67467578D01*
X71095332Y-67406255D01*
X71092499Y-67379898D01*
X71092499Y-66672129D01*
X71092498Y-66672123D01*
X71092497Y-66672116D01*
X71086091Y-66612517D01*
X71084134Y-66607271D01*
X71035797Y-66477671D01*
X71035793Y-66477664D01*
X70949547Y-66362455D01*
X70949544Y-66362452D01*
X70834335Y-66276206D01*
X70834328Y-66276202D01*
X70699482Y-66225908D01*
X70699483Y-66225908D01*
X70639883Y-66219501D01*
X70639881Y-66219500D01*
X70639873Y-66219500D01*
X70639864Y-66219500D01*
X69244129Y-66219500D01*
X69244123Y-66219501D01*
X69184516Y-66225908D01*
X69049671Y-66276202D01*
X69049664Y-66276206D01*
X68934455Y-66362452D01*
X68934452Y-66362455D01*
X68848206Y-66477664D01*
X68848202Y-66477671D01*
X68797908Y-66612517D01*
X68791501Y-66672116D01*
X68791501Y-66672123D01*
X68791500Y-66672135D01*
X68791500Y-68332819D01*
X68771815Y-68399858D01*
X68741812Y-68432085D01*
X68634452Y-68512455D01*
X68548206Y-68627664D01*
X68548202Y-68627671D01*
X68497908Y-68762517D01*
X68491501Y-68822116D01*
X68491500Y-68822135D01*
X67810500Y-68822135D01*
X67810500Y-65995677D01*
X75224000Y-65995677D01*
X75224000Y-66044000D01*
X75924000Y-66044000D01*
X75924000Y-65318999D01*
X75900693Y-65319000D01*
X75900674Y-65319001D01*
X75801392Y-65329144D01*
X75640518Y-65382452D01*
X75640507Y-65382457D01*
X75496271Y-65471424D01*
X75496267Y-65471427D01*
X75376427Y-65591267D01*
X75376424Y-65591271D01*
X75287457Y-65735507D01*
X75287452Y-65735518D01*
X75234144Y-65896393D01*
X75224000Y-65995677D01*
X67810500Y-65995677D01*
X67810500Y-65409875D01*
X67810882Y-65400146D01*
X67817268Y-65319000D01*
X67827026Y-65195009D01*
X67830068Y-65175803D01*
X67876965Y-64980464D01*
X67882971Y-64961979D01*
X67959848Y-64776380D01*
X67968681Y-64759047D01*
X68020853Y-64673912D01*
X68073637Y-64587776D01*
X68085073Y-64572037D01*
X68215531Y-64419290D01*
X68229290Y-64405531D01*
X68382037Y-64275073D01*
X68397778Y-64263636D01*
X68492315Y-64205703D01*
X68569050Y-64158679D01*
X68586380Y-64149848D01*
X68771979Y-64072971D01*
X68790464Y-64066965D01*
X68985803Y-64020068D01*
X69005009Y-64017026D01*
X69210146Y-64000881D01*
X69219875Y-64000500D01*
X69280892Y-64000500D01*
X83045481Y-64000500D01*
X83112520Y-64020185D01*
G37*
%TD.AperFunction*%
%TA.AperFunction,Conductor*%
G36*
X95032039Y-73749685D02*
G01*
X95077794Y-73802489D01*
X95089000Y-73854000D01*
X95089000Y-74780000D01*
X95492134Y-74780000D01*
X95492149Y-74779999D01*
X95528989Y-74777100D01*
X95528995Y-74777099D01*
X95686693Y-74731283D01*
X95686696Y-74731282D01*
X95832379Y-74645126D01*
X95900103Y-74627943D01*
X95966365Y-74650103D01*
X96010129Y-74704569D01*
X96019500Y-74751858D01*
X96019500Y-75107560D01*
X95999815Y-75174599D01*
X95947011Y-75220354D01*
X95877853Y-75230298D01*
X95832380Y-75214292D01*
X95686900Y-75128257D01*
X95686893Y-75128254D01*
X95529073Y-75082402D01*
X95529067Y-75082401D01*
X95492201Y-75079500D01*
X95492194Y-75079500D01*
X94790177Y-75079500D01*
X94765986Y-75077117D01*
X94712610Y-75066500D01*
X94712607Y-75066500D01*
X94712606Y-75066500D01*
X94326000Y-75066500D01*
X94258961Y-75046815D01*
X94213206Y-74994011D01*
X94202000Y-74942500D01*
X94202000Y-74904000D01*
X94221685Y-74836961D01*
X94274489Y-74791206D01*
X94326000Y-74780000D01*
X94589000Y-74780000D01*
X94589000Y-73854000D01*
X94608685Y-73786961D01*
X94661489Y-73741206D01*
X94713000Y-73730000D01*
X94965000Y-73730000D01*
X95032039Y-73749685D01*
G37*
%TD.AperFunction*%
%TA.AperFunction,Conductor*%
G36*
X85899756Y-65226000D02*
G01*
X86242648Y-65226000D01*
X86305766Y-65243267D01*
X86314605Y-65248494D01*
X86314608Y-65248494D01*
X86314610Y-65248496D01*
X86470002Y-65293642D01*
X86470005Y-65293642D01*
X86470007Y-65293643D01*
X86506310Y-65296500D01*
X86506318Y-65296500D01*
X86975682Y-65296500D01*
X86975690Y-65296500D01*
X87011993Y-65293643D01*
X87011995Y-65293642D01*
X87011997Y-65293642D01*
X87100252Y-65268001D01*
X87167395Y-65248494D01*
X87192295Y-65233767D01*
X87255416Y-65216500D01*
X87995500Y-65216500D01*
X88062539Y-65236185D01*
X88108294Y-65288989D01*
X88119500Y-65340500D01*
X88119500Y-65531000D01*
X88099815Y-65598039D01*
X88047011Y-65643794D01*
X87995500Y-65655000D01*
X87594000Y-65655000D01*
X87559319Y-65689681D01*
X87497996Y-65723166D01*
X87471638Y-65726000D01*
X85936496Y-65726000D01*
X85978968Y-65872195D01*
X86061278Y-66011374D01*
X86061285Y-66011383D01*
X86175616Y-66125714D01*
X86175624Y-66125720D01*
X86196239Y-66137912D01*
X86243922Y-66188981D01*
X86256426Y-66257723D01*
X86256057Y-66260828D01*
X86249501Y-66310626D01*
X86249500Y-66310645D01*
X86249500Y-67664363D01*
X86264953Y-67781753D01*
X86264957Y-67781765D01*
X86325461Y-67927836D01*
X86325462Y-67927837D01*
X86325464Y-67927841D01*
X86343876Y-67951835D01*
X86369070Y-68017002D01*
X86369500Y-68027321D01*
X86369500Y-68776533D01*
X86349815Y-68843572D01*
X86297011Y-68889327D01*
X86288836Y-68892714D01*
X86252665Y-68906205D01*
X86137455Y-68992452D01*
X86137452Y-68992455D01*
X86051206Y-69107664D01*
X86051202Y-69107671D01*
X86000908Y-69242517D01*
X85994501Y-69302116D01*
X85994500Y-69302135D01*
X85994500Y-70397870D01*
X85994501Y-70397876D01*
X86000908Y-70457483D01*
X86051202Y-70592328D01*
X86051206Y-70592335D01*
X86137452Y-70707544D01*
X86137455Y-70707547D01*
X86252664Y-70793793D01*
X86252671Y-70793797D01*
X86387517Y-70844091D01*
X86387516Y-70844091D01*
X86394444Y-70844835D01*
X86447127Y-70850500D01*
X87542872Y-70850499D01*
X87602483Y-70844091D01*
X87737331Y-70793796D01*
X87745379Y-70787770D01*
X87810842Y-70763351D01*
X87874474Y-70776895D01*
X87874645Y-70776483D01*
X87876875Y-70777406D01*
X87878146Y-70777677D01*
X87880273Y-70778814D01*
X88068868Y-70836024D01*
X88265000Y-70855341D01*
X88461132Y-70836024D01*
X88649727Y-70778814D01*
X88823538Y-70685910D01*
X88823544Y-70685904D01*
X88828607Y-70682523D01*
X88829703Y-70684164D01*
X88885639Y-70660405D01*
X88954507Y-70672194D01*
X88971148Y-70682888D01*
X88971393Y-70682523D01*
X88976458Y-70685907D01*
X88976462Y-70685910D01*
X89109593Y-70757070D01*
X89148147Y-70777678D01*
X89150273Y-70778814D01*
X89338868Y-70836024D01*
X89535000Y-70855341D01*
X89731132Y-70836024D01*
X89919727Y-70778814D01*
X90093538Y-70685910D01*
X90093544Y-70685904D01*
X90098607Y-70682523D01*
X90099624Y-70684045D01*
X90156021Y-70660084D01*
X90224890Y-70671866D01*
X90241424Y-70682489D01*
X90241678Y-70682110D01*
X90246738Y-70685491D01*
X90420465Y-70778349D01*
X90555000Y-70819159D01*
X90555000Y-70059618D01*
X90605446Y-70110064D01*
X90679555Y-70152851D01*
X90762213Y-70175000D01*
X90847787Y-70175000D01*
X90930445Y-70152851D01*
X91004554Y-70110064D01*
X91055000Y-70059618D01*
X91055000Y-70819159D01*
X91189538Y-70778348D01*
X91319047Y-70709125D01*
X91387450Y-70694883D01*
X91452694Y-70719883D01*
X91494064Y-70776188D01*
X91501500Y-70818483D01*
X91501500Y-71489819D01*
X91481815Y-71556858D01*
X91429011Y-71602613D01*
X91359853Y-71612557D01*
X91302014Y-71588195D01*
X91252842Y-71550464D01*
X91106762Y-71489956D01*
X91106760Y-71489955D01*
X90989361Y-71474500D01*
X90710636Y-71474500D01*
X90593246Y-71489953D01*
X90593234Y-71489957D01*
X90572450Y-71498566D01*
X90502981Y-71506033D01*
X90477550Y-71498566D01*
X90456765Y-71489957D01*
X90456760Y-71489955D01*
X90339361Y-71474500D01*
X90060636Y-71474500D01*
X89943246Y-71489953D01*
X89943234Y-71489957D01*
X89922450Y-71498566D01*
X89852981Y-71506033D01*
X89827550Y-71498566D01*
X89806765Y-71489957D01*
X89806760Y-71489955D01*
X89689361Y-71474500D01*
X89410636Y-71474500D01*
X89293246Y-71489953D01*
X89293234Y-71489957D01*
X89272450Y-71498566D01*
X89202981Y-71506033D01*
X89177550Y-71498566D01*
X89156765Y-71489957D01*
X89156760Y-71489955D01*
X89039361Y-71474500D01*
X88760636Y-71474500D01*
X88643246Y-71489953D01*
X88643234Y-71489957D01*
X88622450Y-71498566D01*
X88552981Y-71506033D01*
X88527550Y-71498566D01*
X88506765Y-71489957D01*
X88506760Y-71489955D01*
X88389361Y-71474500D01*
X88110636Y-71474500D01*
X87993246Y-71489953D01*
X87993234Y-71489957D01*
X87972450Y-71498566D01*
X87902981Y-71506033D01*
X87877550Y-71498566D01*
X87856765Y-71489957D01*
X87856760Y-71489955D01*
X87739361Y-71474500D01*
X87460636Y-71474500D01*
X87343246Y-71489953D01*
X87343234Y-71489957D01*
X87322450Y-71498566D01*
X87252981Y-71506033D01*
X87227550Y-71498566D01*
X87206765Y-71489957D01*
X87206760Y-71489955D01*
X87089361Y-71474500D01*
X86810636Y-71474500D01*
X86693246Y-71489953D01*
X86693237Y-71489956D01*
X86547160Y-71550463D01*
X86421718Y-71646718D01*
X86325463Y-71772160D01*
X86264956Y-71918237D01*
X86264955Y-71918239D01*
X86249501Y-72035629D01*
X86249500Y-72035645D01*
X86249500Y-73389363D01*
X86264953Y-73506753D01*
X86264957Y-73506765D01*
X86270063Y-73519092D01*
X86277532Y-73588561D01*
X86246256Y-73651040D01*
X86243183Y-73654225D01*
X86052074Y-73845334D01*
X85990751Y-73878819D01*
X85951791Y-73881011D01*
X85844011Y-73870000D01*
X84843998Y-73870000D01*
X84843980Y-73870001D01*
X84741203Y-73880500D01*
X84741200Y-73880501D01*
X84574668Y-73935685D01*
X84574663Y-73935687D01*
X84425342Y-74027789D01*
X84301289Y-74151842D01*
X84280037Y-74186297D01*
X84228088Y-74233020D01*
X84159125Y-74244241D01*
X84095043Y-74216397D01*
X84056188Y-74158327D01*
X84050499Y-74121203D01*
X84050499Y-71693964D01*
X84039886Y-71574582D01*
X83983909Y-71378951D01*
X83889698Y-71198593D01*
X83820555Y-71113796D01*
X83761109Y-71040890D01*
X83603447Y-70912335D01*
X83603407Y-70912302D01*
X83423049Y-70818091D01*
X83423048Y-70818090D01*
X83423043Y-70818088D01*
X83340387Y-70794437D01*
X83281350Y-70757070D01*
X83251887Y-70693716D01*
X83250500Y-70675222D01*
X83250500Y-68161874D01*
X83270185Y-68094835D01*
X83286819Y-68074193D01*
X83307730Y-68053282D01*
X83347968Y-68013044D01*
X83437003Y-67868697D01*
X83490349Y-67707708D01*
X83500500Y-67608345D01*
X83500499Y-67011656D01*
X83499006Y-66997044D01*
X83490349Y-66912292D01*
X83490348Y-66912289D01*
X83470530Y-66852481D01*
X83437003Y-66751303D01*
X83436999Y-66751297D01*
X83436998Y-66751294D01*
X83347970Y-66606959D01*
X83347967Y-66606955D01*
X83286819Y-66545807D01*
X83253334Y-66484484D01*
X83250500Y-66458126D01*
X83250500Y-66127519D01*
X83270185Y-66060480D01*
X83286819Y-66039838D01*
X84073838Y-65252819D01*
X84135161Y-65219334D01*
X84161519Y-65216500D01*
X85867403Y-65216500D01*
X85899756Y-65226000D01*
G37*
%TD.AperFunction*%
%TA.AperFunction,Conductor*%
G36*
X91443752Y-68094412D02*
G01*
X91493743Y-68143225D01*
X91509407Y-68211316D01*
X91507244Y-68228130D01*
X91501884Y-68255079D01*
X91501500Y-68257007D01*
X91501500Y-68257010D01*
X91501500Y-68881516D01*
X91481815Y-68948555D01*
X91429011Y-68994310D01*
X91359853Y-69004254D01*
X91319047Y-68990875D01*
X91189536Y-68921651D01*
X91055000Y-68880839D01*
X91055000Y-69640382D01*
X91004554Y-69589936D01*
X90930445Y-69547149D01*
X90847787Y-69525000D01*
X90762213Y-69525000D01*
X90679555Y-69547149D01*
X90605446Y-69589936D01*
X90555000Y-69640382D01*
X90555000Y-68880839D01*
X90554999Y-68880839D01*
X90414636Y-68923419D01*
X90414167Y-68921874D01*
X90352462Y-68928498D01*
X90289988Y-68897212D01*
X90254346Y-68837117D01*
X90250500Y-68806472D01*
X90250500Y-68345437D01*
X90270185Y-68278398D01*
X90322989Y-68232643D01*
X90358316Y-68222498D01*
X90456631Y-68209555D01*
X90476887Y-68201165D01*
X90546356Y-68193693D01*
X90571798Y-68201163D01*
X90593238Y-68210044D01*
X90710639Y-68225500D01*
X90989360Y-68225499D01*
X90989363Y-68225499D01*
X91106753Y-68210046D01*
X91106757Y-68210044D01*
X91106762Y-68210044D01*
X91252841Y-68149536D01*
X91310142Y-68105567D01*
X91375307Y-68080374D01*
X91443752Y-68094412D01*
G37*
%TD.AperFunction*%
%TA.AperFunction,Conductor*%
G36*
X94619853Y-64000881D02*
G01*
X94824988Y-64017026D01*
X94844197Y-64020069D01*
X95039531Y-64066964D01*
X95058024Y-64072973D01*
X95210906Y-64136298D01*
X95243615Y-64149847D01*
X95260952Y-64158681D01*
X95432221Y-64263636D01*
X95447962Y-64275073D01*
X95600709Y-64405531D01*
X95614468Y-64419290D01*
X95744926Y-64572037D01*
X95756363Y-64587778D01*
X95861318Y-64759047D01*
X95870152Y-64776384D01*
X95947024Y-64961969D01*
X95953037Y-64980475D01*
X95999929Y-65175797D01*
X96002973Y-65195015D01*
X96019118Y-65400146D01*
X96019500Y-65409875D01*
X96019500Y-65469540D01*
X95999815Y-65536579D01*
X95947011Y-65582334D01*
X95895085Y-65591042D01*
X95895085Y-65593500D01*
X95506323Y-65593500D01*
X95439284Y-65573815D01*
X95409778Y-65543760D01*
X95408195Y-65545013D01*
X95403713Y-65539345D01*
X95279657Y-65415289D01*
X95279656Y-65415288D01*
X95139994Y-65329144D01*
X95130336Y-65323187D01*
X95130331Y-65323185D01*
X95128862Y-65322698D01*
X94963797Y-65268001D01*
X94963795Y-65268000D01*
X94861010Y-65257500D01*
X93860998Y-65257500D01*
X93860980Y-65257501D01*
X93758203Y-65268000D01*
X93758200Y-65268001D01*
X93591668Y-65323185D01*
X93591663Y-65323187D01*
X93442342Y-65415289D01*
X93318289Y-65539342D01*
X93226187Y-65688663D01*
X93226185Y-65688668D01*
X93206027Y-65749501D01*
X93171001Y-65855203D01*
X93171001Y-65855204D01*
X93171000Y-65855204D01*
X93160500Y-65957983D01*
X93160500Y-66583001D01*
X93160501Y-66583019D01*
X93171000Y-66685796D01*
X93171001Y-66685799D01*
X93226185Y-66852331D01*
X93226187Y-66852336D01*
X93226281Y-66852488D01*
X93315443Y-66997044D01*
X93318289Y-67001657D01*
X93411950Y-67095318D01*
X93445435Y-67156641D01*
X93440451Y-67226333D01*
X93411951Y-67270680D01*
X93347451Y-67335181D01*
X93286128Y-67368666D01*
X93259769Y-67371500D01*
X92881494Y-67371500D01*
X92815523Y-67352494D01*
X92805525Y-67346212D01*
X92635254Y-67286631D01*
X92635249Y-67286630D01*
X92456004Y-67266435D01*
X92455996Y-67266435D01*
X92276750Y-67286630D01*
X92276745Y-67286631D01*
X92106476Y-67346211D01*
X91953737Y-67442184D01*
X91826185Y-67569736D01*
X91779492Y-67644046D01*
X91727157Y-67690336D01*
X91658103Y-67700983D01*
X91594255Y-67672607D01*
X91555884Y-67614217D01*
X91550499Y-67578078D01*
X91550499Y-66310640D01*
X91550499Y-66310639D01*
X91550499Y-66310636D01*
X91536768Y-66206328D01*
X91547534Y-66137293D01*
X91589026Y-66090545D01*
X91588215Y-66089499D01*
X91593801Y-66085165D01*
X91593915Y-66085038D01*
X91594152Y-66084893D01*
X91594383Y-66084714D01*
X91708714Y-65970383D01*
X91708721Y-65970374D01*
X91791031Y-65831195D01*
X91791033Y-65831190D01*
X91836144Y-65675918D01*
X91836145Y-65675912D01*
X91837790Y-65655000D01*
X91003500Y-65655000D01*
X90936461Y-65635315D01*
X90890706Y-65582511D01*
X90879500Y-65531000D01*
X90879500Y-65170317D01*
X90879499Y-65170302D01*
X90876643Y-65134008D01*
X90876642Y-65134002D01*
X90831495Y-64978608D01*
X90831492Y-64978600D01*
X90826266Y-64969763D01*
X90809000Y-64906645D01*
X90809000Y-64600494D01*
X91309000Y-64600494D01*
X91309000Y-65155000D01*
X91837790Y-65155000D01*
X91836145Y-65134089D01*
X91791031Y-64978804D01*
X91708721Y-64839625D01*
X91708714Y-64839616D01*
X91594383Y-64725285D01*
X91594374Y-64725278D01*
X91455193Y-64642967D01*
X91455190Y-64642965D01*
X91309001Y-64600493D01*
X91309000Y-64600494D01*
X90809000Y-64600494D01*
X90808998Y-64600493D01*
X90662809Y-64642965D01*
X90662806Y-64642967D01*
X90642608Y-64654912D01*
X90574884Y-64672092D01*
X90516370Y-64654910D01*
X90495397Y-64642507D01*
X90495390Y-64642504D01*
X90339997Y-64597357D01*
X90339991Y-64597356D01*
X90303697Y-64594500D01*
X90303690Y-64594500D01*
X89894310Y-64594500D01*
X89894302Y-64594500D01*
X89858008Y-64597356D01*
X89858002Y-64597357D01*
X89702609Y-64642504D01*
X89702608Y-64642504D01*
X89649500Y-64673912D01*
X89581776Y-64691093D01*
X89515514Y-64668933D01*
X89483278Y-64636070D01*
X89444115Y-64577459D01*
X89438693Y-64572037D01*
X89346542Y-64479886D01*
X89272187Y-64405531D01*
X89078838Y-64212181D01*
X89045353Y-64150858D01*
X89050337Y-64081166D01*
X89092209Y-64025233D01*
X89157673Y-64000816D01*
X89166519Y-64000500D01*
X94549108Y-64000500D01*
X94610125Y-64000500D01*
X94619853Y-64000881D01*
G37*
%TD.AperFunction*%
%TD*%
M02*
