%TF.GenerationSoftware,KiCad,Pcbnew,8.0.6*%
%TF.CreationDate,2024-12-25T17:09:27-08:00*%
%TF.ProjectId,USB_LED_Controller,5553425f-4c45-4445-9f43-6f6e74726f6c,rev?*%
%TF.SameCoordinates,Original*%
%TF.FileFunction,Copper,L2,Bot*%
%TF.FilePolarity,Positive*%
%FSLAX46Y46*%
G04 Gerber Fmt 4.6, Leading zero omitted, Abs format (unit mm)*
G04 Created by KiCad (PCBNEW 8.0.6) date 2024-12-25 17:09:27*
%MOMM*%
%LPD*%
G01*
G04 APERTURE LIST*
%TA.AperFunction,ComponentPad*%
%ADD10R,1.000000X1.000000*%
%TD*%
%TA.AperFunction,ComponentPad*%
%ADD11O,1.000000X1.000000*%
%TD*%
%TA.AperFunction,ViaPad*%
%ADD12C,0.600000*%
%TD*%
%TA.AperFunction,Conductor*%
%ADD13C,0.400000*%
%TD*%
G04 APERTURE END LIST*
D10*
%TO.P,J1,1,Pin_1*%
%TO.N,SWCLK*%
X86995000Y-69850000D03*
D11*
%TO.P,J1,2,Pin_2*%
%TO.N,SWDIO*%
X88265000Y-69850000D03*
%TO.P,J1,3,Pin_3*%
%TO.N,+3.3V*%
X89535000Y-69850000D03*
%TO.P,J1,4,Pin_4*%
%TO.N,GND*%
X90805000Y-69850000D03*
%TD*%
D12*
%TO.N,GND*%
X80772000Y-75692000D03*
X93980000Y-73152000D03*
X84582000Y-67310000D03*
X81026000Y-65786000D03*
X92202000Y-66548000D03*
%TO.N,Net-(Q1-D)*%
X92964000Y-70358000D03*
X92964000Y-72898000D03*
%TO.N,+5V*%
X92456000Y-68072000D03*
X79502000Y-68326000D03*
X79502000Y-75438000D03*
%TD*%
D13*
%TO.N,+5V*%
X92964000Y-67564000D02*
X92456000Y-68072000D01*
X92710000Y-65786000D02*
X92964000Y-66040000D01*
X82042000Y-65786000D02*
X92710000Y-65786000D01*
X92964000Y-66040000D02*
X92964000Y-67564000D01*
X79502000Y-68326000D02*
X82042000Y-65786000D01*
%TO.N,Net-(Q1-D)*%
X92964000Y-72898000D02*
X92964000Y-70358000D01*
%TO.N,+5V*%
X79502000Y-75438000D02*
X79502000Y-68326000D01*
%TD*%
%TA.AperFunction,Conductor*%
%TO.N,GND*%
G36*
X94619853Y-64000881D02*
G01*
X94824988Y-64017026D01*
X94844197Y-64020069D01*
X95039531Y-64066964D01*
X95058024Y-64072973D01*
X95210906Y-64136298D01*
X95243615Y-64149847D01*
X95260952Y-64158681D01*
X95432221Y-64263636D01*
X95447962Y-64275073D01*
X95600709Y-64405531D01*
X95614468Y-64419290D01*
X95744926Y-64572037D01*
X95756363Y-64587778D01*
X95861318Y-64759047D01*
X95870152Y-64776384D01*
X95947024Y-64961969D01*
X95953037Y-64980475D01*
X95999929Y-65175797D01*
X96002973Y-65195015D01*
X96019118Y-65400146D01*
X96019500Y-65409875D01*
X96019500Y-76830124D01*
X96019118Y-76839853D01*
X96002973Y-77044984D01*
X95999929Y-77064202D01*
X95953037Y-77259524D01*
X95947024Y-77278030D01*
X95870152Y-77463615D01*
X95861318Y-77480952D01*
X95756363Y-77652221D01*
X95744926Y-77667962D01*
X95614468Y-77820709D01*
X95600709Y-77834468D01*
X95447962Y-77964926D01*
X95432221Y-77976363D01*
X95260952Y-78081318D01*
X95243615Y-78090152D01*
X95058030Y-78167024D01*
X95039524Y-78173037D01*
X94844202Y-78219929D01*
X94824984Y-78222973D01*
X94619854Y-78239118D01*
X94610125Y-78239500D01*
X69219875Y-78239500D01*
X69210146Y-78239118D01*
X69005015Y-78222973D01*
X68985797Y-78219929D01*
X68790475Y-78173037D01*
X68771969Y-78167024D01*
X68586384Y-78090152D01*
X68569047Y-78081318D01*
X68397778Y-77976363D01*
X68382037Y-77964926D01*
X68229290Y-77834468D01*
X68215531Y-77820709D01*
X68085073Y-77667962D01*
X68073636Y-77652221D01*
X67968681Y-77480952D01*
X67959847Y-77463615D01*
X67946298Y-77430906D01*
X67882973Y-77278024D01*
X67876964Y-77259531D01*
X67830069Y-77064197D01*
X67827026Y-77044984D01*
X67810882Y-76839853D01*
X67810500Y-76830124D01*
X67810500Y-68325996D01*
X78696435Y-68325996D01*
X78696435Y-68326003D01*
X78716630Y-68505249D01*
X78716631Y-68505254D01*
X78776212Y-68675525D01*
X78782492Y-68685519D01*
X78801500Y-68751493D01*
X78801500Y-75012507D01*
X78782494Y-75078478D01*
X78776209Y-75088479D01*
X78716633Y-75258737D01*
X78716630Y-75258750D01*
X78696435Y-75437996D01*
X78696435Y-75438003D01*
X78716630Y-75617249D01*
X78716631Y-75617254D01*
X78776211Y-75787523D01*
X78872184Y-75940262D01*
X78999738Y-76067816D01*
X79152478Y-76163789D01*
X79322745Y-76223368D01*
X79322750Y-76223369D01*
X79501996Y-76243565D01*
X79502000Y-76243565D01*
X79502004Y-76243565D01*
X79681249Y-76223369D01*
X79681252Y-76223368D01*
X79681255Y-76223368D01*
X79851522Y-76163789D01*
X80004262Y-76067816D01*
X80131816Y-75940262D01*
X80227789Y-75787522D01*
X80287368Y-75617255D01*
X80307565Y-75438000D01*
X80287368Y-75258745D01*
X80287367Y-75258743D01*
X80287366Y-75258737D01*
X80227790Y-75088479D01*
X80221506Y-75078478D01*
X80202500Y-75012507D01*
X80202500Y-69302135D01*
X85994500Y-69302135D01*
X85994500Y-70397870D01*
X85994501Y-70397876D01*
X86000908Y-70457483D01*
X86051202Y-70592328D01*
X86051206Y-70592335D01*
X86137452Y-70707544D01*
X86137455Y-70707547D01*
X86252664Y-70793793D01*
X86252671Y-70793797D01*
X86387517Y-70844091D01*
X86387516Y-70844091D01*
X86394444Y-70844835D01*
X86447127Y-70850500D01*
X87542872Y-70850499D01*
X87602483Y-70844091D01*
X87737331Y-70793796D01*
X87745379Y-70787770D01*
X87810842Y-70763351D01*
X87874474Y-70776895D01*
X87874645Y-70776483D01*
X87876875Y-70777406D01*
X87878146Y-70777677D01*
X87880273Y-70778814D01*
X88068868Y-70836024D01*
X88265000Y-70855341D01*
X88461132Y-70836024D01*
X88649727Y-70778814D01*
X88823538Y-70685910D01*
X88823544Y-70685904D01*
X88828607Y-70682523D01*
X88829703Y-70684164D01*
X88885639Y-70660405D01*
X88954507Y-70672194D01*
X88971148Y-70682888D01*
X88971393Y-70682523D01*
X88976458Y-70685907D01*
X88976462Y-70685910D01*
X89092192Y-70747769D01*
X89148147Y-70777678D01*
X89150273Y-70778814D01*
X89338868Y-70836024D01*
X89535000Y-70855341D01*
X89731132Y-70836024D01*
X89919727Y-70778814D01*
X90093538Y-70685910D01*
X90093544Y-70685904D01*
X90098607Y-70682523D01*
X90099624Y-70684045D01*
X90156021Y-70660084D01*
X90224890Y-70671866D01*
X90241424Y-70682489D01*
X90241678Y-70682110D01*
X90246738Y-70685491D01*
X90420465Y-70778349D01*
X90555000Y-70819159D01*
X91055000Y-70819159D01*
X91189534Y-70778349D01*
X91363260Y-70685491D01*
X91515528Y-70560528D01*
X91640492Y-70408260D01*
X91640496Y-70408253D01*
X91667359Y-70357996D01*
X92158435Y-70357996D01*
X92158435Y-70358003D01*
X92178630Y-70537249D01*
X92178631Y-70537254D01*
X92238212Y-70707525D01*
X92244492Y-70717519D01*
X92263500Y-70783493D01*
X92263500Y-72472507D01*
X92244494Y-72538478D01*
X92238209Y-72548479D01*
X92178633Y-72718737D01*
X92178630Y-72718750D01*
X92158435Y-72897996D01*
X92158435Y-72898003D01*
X92178630Y-73077249D01*
X92178631Y-73077254D01*
X92238211Y-73247523D01*
X92334184Y-73400262D01*
X92461738Y-73527816D01*
X92614478Y-73623789D01*
X92784745Y-73683368D01*
X92784750Y-73683369D01*
X92963996Y-73703565D01*
X92964000Y-73703565D01*
X92964004Y-73703565D01*
X93143249Y-73683369D01*
X93143252Y-73683368D01*
X93143255Y-73683368D01*
X93313522Y-73623789D01*
X93466262Y-73527816D01*
X93593816Y-73400262D01*
X93689789Y-73247522D01*
X93749368Y-73077255D01*
X93769565Y-72898000D01*
X93749368Y-72718745D01*
X93749367Y-72718743D01*
X93749366Y-72718737D01*
X93689790Y-72548479D01*
X93683506Y-72538478D01*
X93664500Y-72472507D01*
X93664500Y-70783493D01*
X93683508Y-70717519D01*
X93689787Y-70707525D01*
X93689786Y-70707525D01*
X93689789Y-70707522D01*
X93749368Y-70537255D01*
X93769565Y-70358000D01*
X93749368Y-70178745D01*
X93689789Y-70008478D01*
X93593816Y-69855738D01*
X93466262Y-69728184D01*
X93313523Y-69632211D01*
X93143254Y-69572631D01*
X93143249Y-69572630D01*
X92964004Y-69552435D01*
X92963996Y-69552435D01*
X92784750Y-69572630D01*
X92784745Y-69572631D01*
X92614476Y-69632211D01*
X92461737Y-69728184D01*
X92334184Y-69855737D01*
X92238211Y-70008476D01*
X92178631Y-70178745D01*
X92178630Y-70178750D01*
X92158435Y-70357996D01*
X91667359Y-70357996D01*
X91733347Y-70234541D01*
X91774160Y-70100000D01*
X91055000Y-70100000D01*
X91055000Y-70819159D01*
X90555000Y-70819159D01*
X90555000Y-70059618D01*
X90605446Y-70110064D01*
X90679555Y-70152851D01*
X90762213Y-70175000D01*
X90847787Y-70175000D01*
X90930445Y-70152851D01*
X91004554Y-70110064D01*
X91065064Y-70049554D01*
X91107851Y-69975445D01*
X91130000Y-69892787D01*
X91130000Y-69807213D01*
X91107851Y-69724555D01*
X91065064Y-69650446D01*
X91014618Y-69600000D01*
X91055000Y-69600000D01*
X91774160Y-69600000D01*
X91774160Y-69599999D01*
X91733347Y-69465458D01*
X91640496Y-69291746D01*
X91640492Y-69291739D01*
X91515528Y-69139471D01*
X91363260Y-69014507D01*
X91363253Y-69014503D01*
X91189541Y-68921652D01*
X91055000Y-68880839D01*
X91055000Y-69600000D01*
X91014618Y-69600000D01*
X91004554Y-69589936D01*
X90930445Y-69547149D01*
X90847787Y-69525000D01*
X90762213Y-69525000D01*
X90679555Y-69547149D01*
X90605446Y-69589936D01*
X90555000Y-69640382D01*
X90555000Y-68880839D01*
X90554999Y-68880839D01*
X90420458Y-68921652D01*
X90246742Y-69014505D01*
X90241673Y-69017893D01*
X90240556Y-69016221D01*
X90184715Y-69039921D01*
X90115851Y-69028111D01*
X90098811Y-69017158D01*
X90098601Y-69017473D01*
X90093532Y-69014086D01*
X89919733Y-68921188D01*
X89919727Y-68921186D01*
X89731132Y-68863976D01*
X89731129Y-68863975D01*
X89535000Y-68844659D01*
X89338870Y-68863975D01*
X89150266Y-68921188D01*
X88976467Y-69014086D01*
X88971399Y-69017473D01*
X88970305Y-69015836D01*
X88914337Y-69039596D01*
X88845471Y-69027795D01*
X88828843Y-69017109D01*
X88828601Y-69017473D01*
X88823532Y-69014086D01*
X88649733Y-68921188D01*
X88649727Y-68921186D01*
X88461132Y-68863976D01*
X88461129Y-68863975D01*
X88265000Y-68844659D01*
X88068870Y-68863975D01*
X88013278Y-68880839D01*
X87880273Y-68921186D01*
X87880272Y-68921186D01*
X87880267Y-68921188D01*
X87878143Y-68922324D01*
X87876898Y-68922583D01*
X87874641Y-68923518D01*
X87874463Y-68923089D01*
X87809740Y-68936564D01*
X87745382Y-68912231D01*
X87737331Y-68906204D01*
X87737328Y-68906202D01*
X87602482Y-68855908D01*
X87602483Y-68855908D01*
X87542883Y-68849501D01*
X87542881Y-68849500D01*
X87542873Y-68849500D01*
X87542864Y-68849500D01*
X86447129Y-68849500D01*
X86447123Y-68849501D01*
X86387516Y-68855908D01*
X86252671Y-68906202D01*
X86252664Y-68906206D01*
X86137455Y-68992452D01*
X86137452Y-68992455D01*
X86051206Y-69107664D01*
X86051202Y-69107671D01*
X86000908Y-69242517D01*
X85994501Y-69302116D01*
X85994500Y-69302135D01*
X80202500Y-69302135D01*
X80202500Y-68751493D01*
X80221508Y-68685519D01*
X80227787Y-68675526D01*
X80227789Y-68675522D01*
X80263220Y-68574262D01*
X80264007Y-68572012D01*
X80293365Y-68525289D01*
X82295837Y-66522819D01*
X82357160Y-66489334D01*
X82383518Y-66486500D01*
X92139500Y-66486500D01*
X92206539Y-66506185D01*
X92252294Y-66558989D01*
X92263500Y-66610500D01*
X92263500Y-67203283D01*
X92243815Y-67270322D01*
X92191011Y-67316077D01*
X92180456Y-67320324D01*
X92106476Y-67346211D01*
X92106475Y-67346212D01*
X91953737Y-67442184D01*
X91826184Y-67569737D01*
X91730211Y-67722476D01*
X91670631Y-67892745D01*
X91670630Y-67892750D01*
X91650435Y-68071996D01*
X91650435Y-68072003D01*
X91670630Y-68251249D01*
X91670631Y-68251254D01*
X91730211Y-68421523D01*
X91824772Y-68572015D01*
X91826184Y-68574262D01*
X91953738Y-68701816D01*
X92106478Y-68797789D01*
X92272573Y-68855908D01*
X92276745Y-68857368D01*
X92276750Y-68857369D01*
X92455996Y-68877565D01*
X92456000Y-68877565D01*
X92456004Y-68877565D01*
X92635249Y-68857369D01*
X92635252Y-68857368D01*
X92635255Y-68857368D01*
X92805522Y-68797789D01*
X92958262Y-68701816D01*
X93085816Y-68574262D01*
X93181789Y-68421522D01*
X93218008Y-68318011D01*
X93247366Y-68271289D01*
X93508113Y-68010543D01*
X93519041Y-67994189D01*
X93584775Y-67895811D01*
X93637580Y-67768328D01*
X93646701Y-67722476D01*
X93664500Y-67632995D01*
X93664500Y-65971004D01*
X93637581Y-65835676D01*
X93637580Y-65835674D01*
X93637580Y-65835672D01*
X93633240Y-65825194D01*
X93625093Y-65805525D01*
X93625081Y-65805498D01*
X93584778Y-65708196D01*
X93584777Y-65708195D01*
X93584775Y-65708189D01*
X93508114Y-65593457D01*
X93508112Y-65593454D01*
X93156545Y-65241887D01*
X93041807Y-65165222D01*
X92914332Y-65112421D01*
X92914322Y-65112418D01*
X92778996Y-65085500D01*
X92778994Y-65085500D01*
X92778993Y-65085500D01*
X81973007Y-65085500D01*
X81973003Y-65085500D01*
X81864590Y-65107065D01*
X81864589Y-65107065D01*
X81851131Y-65109742D01*
X81837673Y-65112419D01*
X81784866Y-65134291D01*
X81784866Y-65134292D01*
X81737774Y-65153798D01*
X81710186Y-65165226D01*
X81700034Y-65172010D01*
X81699923Y-65172084D01*
X81595457Y-65241886D01*
X81595453Y-65241889D01*
X79302712Y-67534630D01*
X79255987Y-67563990D01*
X79152479Y-67600209D01*
X78999737Y-67696184D01*
X78872184Y-67823737D01*
X78776211Y-67976476D01*
X78716631Y-68146745D01*
X78716630Y-68146750D01*
X78696435Y-68325996D01*
X67810500Y-68325996D01*
X67810500Y-65409875D01*
X67810882Y-65400146D01*
X67815686Y-65339108D01*
X67827026Y-65195009D01*
X67830068Y-65175803D01*
X67876965Y-64980464D01*
X67882971Y-64961979D01*
X67959848Y-64776380D01*
X67968681Y-64759047D01*
X68073636Y-64587778D01*
X68085073Y-64572037D01*
X68215531Y-64419290D01*
X68229290Y-64405531D01*
X68382037Y-64275073D01*
X68397778Y-64263636D01*
X68569050Y-64158679D01*
X68586380Y-64149848D01*
X68771979Y-64072971D01*
X68790464Y-64066965D01*
X68985803Y-64020068D01*
X69005009Y-64017026D01*
X69210146Y-64000881D01*
X69219875Y-64000500D01*
X69280892Y-64000500D01*
X94549108Y-64000500D01*
X94610125Y-64000500D01*
X94619853Y-64000881D01*
G37*
%TD.AperFunction*%
%TD*%
M02*
